<svg xmlns="http://www.w3.org/2000/svg" style="display: none;">
    <!-- Иконка VK -->
    <symbol id="app-store" viewBox="0 0 227 65">
        <path d="M14.5763 64.9966C13.9897 64.9966 13.4174 64.99 12.8354 64.9784C11.6299 64.9646 10.4272 64.8719 9.23722 64.7013C8.12759 64.5326 7.05266 64.2188 6.04788 63.7702C5.05232 63.3254 4.14429 62.7421 3.35857 62.0428C2.56147 61.3517 1.89786 60.5501 1.39402 59.6698C0.884624 58.7838 0.532094 57.8341 0.348706 56.8538C0.150664 55.8004 0.043515 54.7353 0.028183 53.6676C0.0159781 53.3093 0 52.1161 0 52.1161V12.8623C0 12.8623 0.0170177 11.6874 0.0282793 11.3422C0.0429595 10.2762 0.149486 9.21278 0.346935 8.16107C0.530661 7.17809 0.883464 6.22565 1.39313 5.33674C1.89512 4.45706 2.55505 3.65487 3.34734 2.96126C4.13874 2.26107 5.04968 1.6748 6.04694 1.22382C7.04941 0.77672 8.1223 0.465142 9.22969 0.299528C10.4236 0.127166 11.6305 0.0339785 12.8402 0.020748L14.5772 0H212.413L214.171 0.0215806C215.37 0.0341538 216.566 0.12651 217.749 0.297863C218.867 0.465554 219.951 0.779306 220.965 1.2288C222.963 2.13764 224.589 3.57552 225.614 5.34089C226.116 6.22366 226.463 7.16833 226.645 8.14282C226.844 9.20316 226.956 10.275 226.979 11.3497C226.985 11.8309 226.985 12.3478 226.985 12.8623C227 13.4995 227 14.106 227 14.7175V50.2807C227 50.898 227 51.5004 226.985 52.1077C226.985 52.6603 226.985 53.1665 226.977 53.6875C226.955 54.7431 226.845 55.7957 226.648 56.8371C226.469 57.8245 226.118 58.7816 225.609 59.6749C225.101 60.5456 224.442 61.3402 223.654 62.0295C222.867 62.7327 221.958 63.3193 220.96 63.767C219.949 64.219 218.866 64.534 217.749 64.7013C216.559 64.8728 215.356 64.9655 214.15 64.9784C213.587 64.99 212.996 64.9966 212.423 64.9966L210.336 65L14.5763 64.9966Z"
        />
        <path d="M40.8326 33.2859C40.8508 31.8762 41.2252 30.4941 41.9211 29.268C42.6169 28.042 43.6116 27.0118 44.8126 26.2735C44.0497 25.1839 43.0432 24.2872 41.8731 23.6546C40.703 23.022 39.4015 22.671 38.072 22.6294C35.2359 22.3317 32.4865 24.3265 31.0413 24.3265C29.5681 24.3265 27.343 22.659 24.9469 22.7083C23.3971 22.7583 21.8866 23.209 20.5627 24.0164C19.2389 24.8238 18.1467 25.9604 17.3927 27.3153C14.1263 32.9704 16.5627 41.2816 19.6916 45.8527C21.257 48.0911 23.0865 50.5914 25.4805 50.5027C27.8231 50.4056 28.698 49.0089 31.5257 49.0089C34.3271 49.0089 35.148 50.5027 37.5905 50.4464C40.1042 50.4056 41.6879 48.198 43.1985 45.9385C44.3232 44.3436 45.1887 42.5808 45.7629 40.7156C44.3025 40.0979 43.0562 39.064 42.1795 37.7428C41.3028 36.4216 40.8343 34.8715 40.8326 33.2859Z"
              fill="white"/>
        <path d="M36.2189 19.6228C37.5894 17.9775 38.2647 15.8627 38.1012 13.7275C36.0072 13.9475 34.073 14.9482 32.6839 16.5304C32.0047 17.3034 31.4846 18.2026 31.1531 19.1767C30.8217 20.1508 30.6855 21.1807 30.7523 22.2074C31.7997 22.2182 32.8358 21.9912 33.7827 21.5435C34.7296 21.0958 35.5626 20.4391 36.2189 19.6228Z"
              fill="white"/>
        <path d="M70.4452 44.8355H62.451L60.5312 50.5042H57.1452L64.7171 29.5315H68.2351L75.807 50.5042H72.3633L70.4452 44.8355ZM63.2789 42.2197H69.6156L66.4919 33.0198H66.4044L63.2789 42.2197Z"
              fill="white"/>
        <path d="M92.1589 42.8596C92.1589 47.6112 89.6157 50.6641 85.7778 50.6641C84.8055 50.7149 83.8387 50.491 82.9878 50.0178C82.137 49.5447 81.4365 48.8416 80.9667 47.9889H80.8941V55.5625H77.7555V35.2134H80.7936V37.7566H80.8513C81.3427 36.908 82.0549 36.2085 82.9123 35.7325C83.7696 35.2565 84.7399 35.0218 85.72 35.0534C89.6008 35.0534 92.1589 38.1211 92.1589 42.8596ZM88.9329 42.8596C88.9329 39.7638 87.333 37.7286 84.8921 37.7286C82.494 37.7286 80.881 39.8067 80.881 42.8596C80.881 45.9405 82.494 48.0037 84.8921 48.0037C87.3331 48.0037 88.9329 45.9833 88.9329 42.8596Z"
              fill="white"/>
        <path d="M108.99 42.8595C108.99 47.6112 106.447 50.664 102.609 50.664C101.636 50.7149 100.67 50.491 99.8187 50.0178C98.9678 49.5447 98.2674 48.8415 97.7976 47.9888H97.725V55.5625H94.5864V35.2134H97.6244V37.7566H97.6821C98.1735 36.908 98.8857 36.2085 99.7431 35.7324C100.6 35.2564 101.571 35.0218 102.551 35.0534C106.432 35.0534 108.99 38.1211 108.99 42.8595ZM105.764 42.8595C105.764 39.7638 104.164 37.7285 101.723 37.7285C99.3249 37.7285 97.7118 39.8067 97.7118 42.8595C97.7118 45.9404 99.3249 48.0037 101.723 48.0037C104.164 48.0037 105.764 45.9833 105.764 42.8595Z"
              fill="white"/>
        <path d="M120.113 44.6604C120.345 46.7402 122.366 48.1057 125.127 48.1057C127.772 48.1057 129.675 46.7401 129.675 44.8648C129.675 43.237 128.528 42.2623 125.81 41.5943L123.091 40.9395C119.24 40.0093 117.452 38.2082 117.452 35.2857C117.452 31.6671 120.606 29.1816 125.084 29.1816C129.515 29.1816 132.554 31.6671 132.656 35.2857H129.487C129.298 33.1927 127.568 31.9293 125.039 31.9293C122.511 31.9293 120.781 33.2076 120.781 35.068C120.781 36.5507 121.886 37.4232 124.589 38.0911L126.9 38.6584C131.203 39.6761 132.991 41.4046 132.991 44.4722C132.991 48.3959 129.865 50.8534 124.894 50.8534C120.243 50.8534 117.103 48.4537 116.9 44.6602L120.113 44.6604Z"
              fill="white"/>
        <path d="M139.764 31.5948V35.2134H142.672V37.6989H139.764V46.1285C139.764 47.438 140.346 48.0483 141.624 48.0483C141.969 48.0423 142.314 48.018 142.657 47.9757V50.4463C142.082 50.5537 141.498 50.6023 140.913 50.5915C137.818 50.5915 136.61 49.4287 136.61 46.4632V37.6989H134.387V35.2134H136.61V31.5948H139.764Z"
              fill="white"/>
        <path d="M144.357 42.8593C144.357 38.0483 147.19 35.0251 151.609 35.0251C156.042 35.0251 158.862 38.0483 158.862 42.8593C158.862 47.6836 156.057 50.6935 151.609 50.6935C147.162 50.6935 144.357 47.6836 144.357 42.8593ZM155.664 42.8593C155.664 39.5591 154.152 37.6113 151.609 37.6113C149.066 37.6113 147.555 39.5739 147.555 42.8593C147.555 46.1728 149.066 48.1058 151.609 48.1058C154.152 48.1058 155.664 46.1728 155.664 42.8593Z"
              fill="white"/>
        <path d="M161.45 35.2132H164.444V37.8158H164.516C164.719 37.003 165.195 36.2846 165.865 35.7815C166.535 35.2784 167.357 35.0213 168.194 35.0532C168.556 35.052 168.917 35.0912 169.27 35.1703V38.1061C168.813 37.9666 168.337 37.9025 167.859 37.9164C167.403 37.8979 166.949 37.9783 166.527 38.1521C166.105 38.3258 165.726 38.5889 165.415 38.9231C165.104 39.2573 164.869 39.6548 164.727 40.0883C164.584 40.5218 164.537 40.981 164.589 41.4344V50.5039H161.45L161.45 35.2132Z"
              fill="white"/>
        <path d="M183.739 46.0128C183.317 48.7886 180.613 50.6935 177.155 50.6935C172.707 50.6935 169.946 47.7132 169.946 42.9319C169.946 38.1357 172.721 35.0251 177.023 35.0251C181.253 35.0251 183.914 37.9312 183.914 42.5674V43.6428H173.114V43.8324C173.064 44.3952 173.135 44.9621 173.321 45.4955C173.507 46.0289 173.804 46.5166 174.193 46.9263C174.582 47.3359 175.054 47.6581 175.577 47.8714C176.1 48.0847 176.663 48.1843 177.227 48.1635C177.969 48.233 178.713 48.0612 179.35 47.6737C179.986 47.2862 180.48 46.7037 180.759 46.0128L183.739 46.0128ZM173.129 41.4492H180.773C180.802 40.9432 180.725 40.4369 180.548 39.9619C180.371 39.487 180.098 39.0537 179.746 38.6893C179.394 38.3249 178.97 38.0372 178.502 37.8443C178.033 37.6514 177.529 37.5575 177.023 37.5684C176.512 37.5653 176.005 37.6635 175.532 37.8573C175.059 38.0511 174.629 38.3366 174.267 38.6974C173.905 39.0582 173.618 39.4872 173.423 39.9595C173.227 40.4318 173.128 40.9381 173.129 41.4492Z"
              fill="white"/>
        <path d="M62.885 13.746C63.543 13.6988 64.2033 13.7982 64.8182 14.037C65.4332 14.2759 65.9874 14.6483 66.441 15.1273C66.8947 15.6063 67.2363 16.18 67.4413 16.807C67.6464 17.4341 67.7097 18.0988 67.6267 18.7533C67.6267 21.9727 65.8867 23.8233 62.885 23.8233H59.245V13.746H62.885ZM60.8101 22.3982H62.7101C63.1803 22.4263 63.6509 22.3492 64.0875 22.1725C64.5242 21.9958 64.9159 21.724 65.2343 21.3768C65.5526 21.0296 65.7895 20.6158 65.9278 20.1655C66.066 19.7153 66.1021 19.2398 66.0335 18.7738C66.0972 18.3096 66.0574 17.8371 65.917 17.3901C65.7766 16.9432 65.5391 16.5328 65.2215 16.1883C64.9039 15.8439 64.514 15.574 64.0798 15.398C63.6457 15.2219 63.1779 15.1441 62.7101 15.1701H60.8101V22.3982Z"
              fill="white"/>
        <path d="M69.3952 20.0171C69.3474 19.5173 69.4046 19.0131 69.5631 18.5367C69.7215 18.0603 69.9778 17.6223 70.3155 17.2508C70.6532 16.8793 71.0648 16.5824 71.5239 16.3793C71.9831 16.1762 72.4796 16.0712 72.9816 16.0712C73.4837 16.0712 73.9802 16.1762 74.4393 16.3793C74.8984 16.5824 75.31 16.8793 75.6477 17.2508C75.9854 17.6223 76.2417 18.0603 76.4002 18.5367C76.5587 19.0131 76.6159 19.5173 76.568 20.0171C76.6168 20.5174 76.5603 21.0224 76.4022 21.4995C76.2441 21.9767 75.988 22.4155 75.6502 22.7877C75.3125 23.16 74.9005 23.4574 74.441 23.661C73.9814 23.8646 73.4843 23.9697 72.9816 23.9697C72.479 23.9697 71.9819 23.8646 71.5223 23.661C71.0627 23.4574 70.6508 23.16 70.313 22.7877C69.9753 22.4155 69.7191 21.9767 69.5611 21.4995C69.403 21.0224 69.3465 20.5174 69.3952 20.0171ZM75.0243 20.0171C75.0243 18.3686 74.2837 17.4046 72.9841 17.4046C71.6795 17.4046 70.9456 18.3686 70.9456 20.0171C70.9456 21.6788 71.6796 22.6354 72.9841 22.6354C74.2838 22.6354 75.0243 21.6722 75.0243 20.0171Z"
              fill="white"/>
        <path d="M86.1012 23.8228H84.5443L82.9725 18.2218H82.8538L81.2886 23.8228H79.7465L77.6502 16.2179H79.1725L80.5348 22.0209H80.647L82.2105 16.2179H83.6504L85.2139 22.0209H85.3327L86.6884 16.2179H88.1893L86.1012 23.8228Z"
              fill="white"/>
        <path d="M89.9534 16.2185H91.3982V17.4266H91.5103C91.7006 16.9927 92.0215 16.6289 92.4283 16.3861C92.8351 16.1432 93.3076 16.0333 93.7798 16.0717C94.1498 16.0439 94.5214 16.0997 94.8669 16.2349C95.2125 16.3702 95.5231 16.5815 95.7759 16.8531C96.0287 17.1248 96.2172 17.4498 96.3273 17.8042C96.4374 18.1586 96.4664 18.5331 96.4121 18.9002V23.8233H94.9112V19.2771C94.9112 18.055 94.3801 17.4472 93.2701 17.4472C93.0189 17.4355 92.7681 17.4783 92.535 17.5726C92.3018 17.6669 92.0918 17.8104 91.9193 17.9935C91.7468 18.1765 91.616 18.3947 91.5357 18.6331C91.4554 18.8714 91.4276 19.1243 91.4543 19.3744V23.8234H89.9534L89.9534 16.2185Z"
              fill="white"/>
        <path d="M98.8041 13.2493H100.305V23.823H98.8041V13.2493Z" fill="white"/>
        <path d="M102.39 20.0173C102.342 19.5175 102.399 19.0132 102.558 18.5368C102.716 18.0604 102.972 17.6224 103.31 17.2508C103.648 16.8793 104.059 16.5824 104.519 16.3793C104.978 16.1762 105.474 16.0712 105.976 16.0712C106.478 16.0712 106.975 16.1762 107.434 16.3793C107.893 16.5824 108.305 16.8793 108.643 17.2508C108.98 17.6224 109.237 18.0604 109.395 18.5368C109.554 19.0132 109.611 19.5175 109.563 20.0173C109.612 20.5176 109.555 21.0225 109.397 21.4997C109.239 21.9768 108.983 22.4156 108.645 22.7879C108.307 23.1601 107.895 23.4576 107.436 23.6611C106.976 23.8647 106.479 23.9698 105.976 23.9698C105.474 23.9698 104.977 23.8647 104.517 23.6611C104.057 23.4576 103.645 23.1601 103.308 22.7879C102.97 22.4156 102.714 21.9768 102.556 21.4997C102.397 21.0225 102.341 20.5176 102.39 20.0173ZM108.019 20.0173C108.019 18.3688 107.278 17.4048 105.978 17.4048C104.674 17.4048 103.94 18.3688 103.94 20.0173C103.94 21.679 104.674 22.6355 105.978 22.6355C107.278 22.6355 108.019 21.6723 108.019 20.0173Z"
              fill="white"/>
        <path d="M111.145 21.6726C111.145 20.3036 112.164 19.5145 113.973 19.4023L116.033 19.2836V18.6271C116.033 17.8239 115.502 17.3704 114.476 17.3704C113.638 17.3704 113.058 17.678 112.891 18.2156H111.438C111.591 16.9094 112.82 16.0715 114.545 16.0715C116.452 16.0715 117.527 17.0207 117.527 18.6271V23.8233H116.083V22.7545H115.964C115.723 23.1379 115.384 23.4504 114.983 23.6602C114.582 23.87 114.132 23.9695 113.68 23.9486C113.36 23.9818 113.038 23.9477 112.732 23.8486C112.427 23.7494 112.146 23.5874 111.907 23.373C111.668 23.1586 111.477 22.8965 111.346 22.6036C111.214 22.3107 111.146 21.9935 111.145 21.6726ZM116.033 21.0227V20.3869L114.176 20.5057C113.129 20.5758 112.654 20.932 112.654 21.6025C112.654 22.2869 113.247 22.6852 114.064 22.6852C114.303 22.7094 114.545 22.6853 114.774 22.6142C115.004 22.5431 115.217 22.4266 115.401 22.2714C115.585 22.1163 115.735 21.9259 115.844 21.7113C115.952 21.4968 116.017 21.2626 116.033 21.0227Z"
              fill="white"/>
        <path d="M119.5 20.0172C119.5 17.6142 120.735 16.0919 122.657 16.0919C123.132 16.07 123.604 16.1838 124.017 16.4201C124.43 16.6563 124.767 17.0053 124.989 17.4261H125.101V13.2493H126.602V23.823H125.164V22.6214H125.045C124.806 23.0394 124.457 23.384 124.036 23.6179C123.615 23.8518 123.138 23.966 122.657 23.9483C120.722 23.9484 119.5 22.426 119.5 20.0172ZM121.05 20.0172C121.05 21.6302 121.811 22.6009 123.082 22.6009C124.347 22.6009 125.129 21.6162 125.129 20.0238C125.129 18.4388 124.339 17.4402 123.082 17.4402C121.819 17.4402 121.05 18.4174 121.05 20.0172Z"
              fill="white"/>
        <path d="M132.812 20.0174C132.764 19.5177 132.821 19.0134 132.98 18.537C133.138 18.0606 133.394 17.6226 133.732 17.2511C134.07 16.8796 134.481 16.5827 134.941 16.3796C135.4 16.1765 135.896 16.0715 136.398 16.0715C136.9 16.0715 137.397 16.1765 137.856 16.3796C138.315 16.5827 138.727 16.8796 139.064 17.2511C139.402 17.6226 139.658 18.0606 139.817 18.537C139.975 19.0134 140.032 19.5177 139.985 20.0174C140.033 20.5177 139.977 21.0227 139.819 21.4998C139.661 21.977 139.405 22.4158 139.067 22.788C138.729 23.1603 138.317 23.4577 137.858 23.6613C137.398 23.8649 136.901 23.9701 136.398 23.9701C135.896 23.9701 135.398 23.8649 134.939 23.6613C134.479 23.4577 134.067 23.1603 133.73 22.788C133.392 22.4158 133.136 21.977 132.978 21.4998C132.82 21.0227 132.763 20.5177 132.812 20.0174ZM138.441 20.0174C138.441 18.369 137.7 17.4049 136.401 17.4049C135.096 17.4049 134.362 18.369 134.362 20.0174C134.362 21.6791 135.096 22.6357 136.401 22.6357C137.7 22.6357 138.441 21.6725 138.441 20.0174Z"
              fill="white"/>
        <path d="M141.999 16.2185H143.444V17.4266H143.556C143.746 16.9927 144.067 16.6289 144.474 16.3861C144.881 16.1432 145.353 16.0333 145.826 16.0717C146.196 16.0439 146.567 16.0997 146.913 16.2349C147.258 16.3702 147.569 16.5815 147.822 16.8531C148.075 17.1248 148.263 17.4498 148.373 17.8042C148.483 18.1586 148.512 18.5331 148.458 18.9002V23.8233H146.957V19.2771C146.957 18.055 146.426 17.4472 145.316 17.4472C145.065 17.4355 144.814 17.4783 144.581 17.5726C144.348 17.6669 144.138 17.8104 143.965 17.9935C143.793 18.1765 143.662 18.3947 143.581 18.6331C143.501 18.8714 143.473 19.1243 143.5 19.3744V23.8234H141.999V16.2185Z"
              fill="white"/>
        <path d="M156.939 14.3245V16.2526H158.586V17.5168H156.939V21.4273C156.939 22.2239 157.267 22.5727 158.014 22.5727C158.205 22.5721 158.396 22.5605 158.586 22.5381V23.7882C158.317 23.8365 158.044 23.8621 157.77 23.8649C156.101 23.8649 155.436 23.2778 155.436 21.8115V17.5167H154.229V16.2525H155.436V14.3245H156.939Z"
              fill="white"/>
        <path d="M160.636 13.2493H162.124V17.4402H162.243C162.442 17.0022 162.772 16.6364 163.187 16.3926C163.602 16.1488 164.082 16.0389 164.561 16.0778C164.93 16.0578 165.297 16.1193 165.639 16.2578C165.981 16.3964 166.288 16.6086 166.538 16.8794C166.788 17.1502 166.975 17.4729 167.086 17.8244C167.197 18.1759 167.23 18.5476 167.18 18.913V23.823H165.678V19.2832C165.678 18.0685 165.112 17.4533 164.052 17.4533C163.794 17.4322 163.534 17.4676 163.292 17.5572C163.049 17.6468 162.829 17.7884 162.646 17.9721C162.464 18.1557 162.324 18.377 162.236 18.6204C162.148 18.8638 162.114 19.1236 162.137 19.3814V23.8229H160.636L160.636 13.2493Z"
              fill="white"/>
        <path d="M175.933 21.7697C175.729 22.4648 175.287 23.066 174.684 23.4682C174.082 23.8704 173.357 24.048 172.637 23.9699C172.136 23.9831 171.638 23.8871 171.178 23.6886C170.718 23.4901 170.306 23.1939 169.972 22.8204C169.638 22.4469 169.389 22.0052 169.242 21.5258C169.096 21.0465 169.056 20.541 169.124 20.0445C169.058 19.5465 169.099 19.04 169.245 18.5592C169.391 18.0784 169.638 17.6346 169.971 17.2579C170.303 16.8811 170.713 16.5802 171.172 16.3755C171.631 16.1708 172.128 16.0671 172.631 16.0714C174.747 16.0714 176.023 17.517 176.023 19.9051V20.4288H170.653V20.513C170.63 20.792 170.665 21.0729 170.756 21.3377C170.848 21.6024 170.993 21.8451 171.184 22.0502C171.375 22.2554 171.606 22.4184 171.863 22.5288C172.121 22.6393 172.398 22.6947 172.679 22.6916C173.038 22.7347 173.401 22.6701 173.723 22.5059C174.046 22.3417 174.312 22.0855 174.488 21.7697L175.933 21.7697ZM170.653 19.3188H174.494C174.513 19.0636 174.479 18.8072 174.393 18.5662C174.306 18.3252 174.171 18.1048 173.995 17.9193C173.818 17.7337 173.605 17.5871 173.369 17.4889C173.133 17.3906 172.878 17.3429 172.622 17.3488C172.363 17.3455 172.105 17.3942 171.865 17.4921C171.624 17.59 171.406 17.735 171.222 17.9186C171.039 18.1022 170.894 18.3207 170.796 18.5611C170.698 18.8016 170.65 19.0593 170.653 19.3188Z"
              fill="white"/>
    </symbol>

    <symbol id="google-play" viewBox="0 0 227 67">
        <path fill-rule="evenodd" clip-rule="evenodd"
              d="M218.589 67H8.4105C3.77512 67 0 63.2239 0 58.625V8.375C0 3.75935 3.77512 0 8.4105 0H218.589C223.221 0 227 3.75935 227 8.375V58.625C227 63.2239 223.221 67 218.589 67Z"
        />
        <path d="M119.586 22.1627C118.07 22.1627 116.792 21.6322 115.782 20.588C114.78 19.573 114.22 18.1736 114.245 16.7451C114.245 15.2205 114.763 13.9297 115.782 12.9064C116.788 11.8621 118.066 11.3316 119.582 11.3316C121.081 11.3316 122.359 11.8621 123.386 12.9064C124.405 13.9632 124.923 15.2539 124.923 16.7451C124.906 18.2739 124.388 19.5646 123.386 20.5838C122.38 21.6364 121.102 22.1627 119.586 22.1627ZM74.4812 22.1627C72.9987 22.1627 71.7125 21.6406 70.6601 20.6089C69.6161 19.5813 69.0858 18.2822 69.0858 16.7493C69.0858 15.2163 69.6161 13.9172 70.6601 12.8897C71.6916 11.8579 72.9778 11.3358 74.4812 11.3358C75.2162 11.3358 75.9302 11.482 76.6151 11.7786C77.2874 12.0668 77.8345 12.4594 78.2396 12.9398L78.3398 13.0609L77.2081 14.172L77.0912 14.0342C76.4522 13.2739 75.5962 12.9022 74.4645 12.9022C73.4539 12.9022 72.5728 13.2614 71.8461 13.9715C71.1153 14.6858 70.7437 15.6215 70.7437 16.7534C70.7437 17.8854 71.1153 18.8211 71.8461 19.5354C72.5728 20.2455 73.4539 20.6047 74.4645 20.6047C75.5419 20.6047 76.4481 20.2455 77.1538 19.5354C77.5714 19.1177 77.8303 18.5329 77.9222 17.7935H74.2933V16.2313H79.4798L79.5007 16.3733C79.5383 16.6365 79.5759 16.908 79.5759 17.1586C79.5759 18.5997 79.1416 19.7651 78.2813 20.6256C77.3042 21.6448 76.0263 22.1627 74.4812 22.1627ZM134.453 21.9413H132.853L127.955 14.101L127.997 15.5128V21.9372H126.397V11.5572H128.222L128.272 11.6365L132.878 19.0216L132.837 17.6139V11.5572H134.453V21.9413ZM107.568 21.9413H105.947V13.1194H103.137V11.5572H110.374V13.1194H107.563V21.9413H107.568ZM101.817 21.9413H100.201V11.5572H101.817V21.9413ZM92.7345 21.9413H91.1183V13.1194H88.3079V11.5572H95.5449V13.1194H92.7345V21.9413ZM87.2848 21.9246H81.0876V11.5572H87.2848V13.1194H82.7079V15.9681H86.8379V17.5137H82.7079V20.3624H87.2848V21.9246ZM116.968 19.5145C117.69 20.2371 118.567 20.6005 119.586 20.6005C120.634 20.6005 121.49 20.2455 122.204 19.5145C122.914 18.8044 123.273 17.8729 123.273 16.7493C123.273 15.6256 122.914 14.69 122.209 13.984C121.486 13.2614 120.605 12.898 119.59 12.898C118.542 12.898 117.686 13.2531 116.976 13.984C116.266 14.6941 115.907 15.6256 115.907 16.7493C115.907 17.8729 116.262 18.8085 116.968 19.5145Z"
              fill="white"/>
        <path fill-rule="evenodd" clip-rule="evenodd"
              d="M114.092 36.4406C110.145 36.4406 106.947 39.4356 106.947 43.5667C106.947 47.6602 110.166 50.6928 114.092 50.6928C118.038 50.6928 121.237 47.6769 121.237 43.5667C121.237 39.4356 118.038 36.4406 114.092 36.4406ZM114.092 47.8691C111.933 47.8691 110.074 46.0813 110.074 43.55C110.074 40.9811 111.937 39.2309 114.092 39.2309C116.251 39.2309 118.109 40.9811 118.109 43.55C118.113 46.098 116.251 47.8691 114.092 47.8691ZM98.5027 36.4406C94.5563 36.4406 91.3575 39.4356 91.3575 43.5667C91.3575 47.6602 94.5772 50.6928 98.5027 50.6928C102.449 50.6928 105.648 47.6769 105.648 43.5667C105.648 39.4356 102.445 36.4406 98.5027 36.4406ZM98.5027 47.8691C96.3437 47.8691 94.4853 46.0813 94.4853 43.55C94.4853 40.9811 96.3478 39.2309 98.5027 39.2309C100.662 39.2309 102.52 40.9811 102.52 43.55C102.52 46.098 100.662 47.8691 98.5027 47.8691ZM79.9528 38.6169V41.6327H87.1898C86.9685 43.3244 86.4089 44.5734 85.5528 45.4297C84.4921 46.4906 82.8551 47.6435 79.9695 47.6435C75.522 47.6435 72.0434 44.0512 72.0434 39.6027C72.0434 35.1541 75.522 31.5618 79.9695 31.5618C82.3707 31.5618 84.1204 32.51 85.4192 33.7214L87.5573 31.5827C85.7533 29.8534 83.3521 28.5293 79.9862 28.5293C73.885 28.5293 68.7652 33.5 68.7652 39.586C68.7652 45.6886 73.8808 50.6426 79.9862 50.6426C83.2811 50.6426 85.7533 49.5649 87.7076 47.5349C89.6996 45.5424 90.3302 42.7313 90.3302 40.4631C90.3302 39.7572 90.2759 39.1223 90.1632 38.5835H79.9486C79.9528 38.5793 79.9528 38.6169 79.9528 38.6169ZM155.827 40.9644C155.23 39.3646 153.426 36.4239 149.726 36.4239C146.059 36.4239 143.011 39.3103 143.011 43.55C143.011 47.5516 146.026 50.676 150.081 50.676C153.338 50.676 155.234 48.6836 156.015 47.514L153.597 45.8933C152.795 47.0838 151.68 47.8649 150.097 47.8649C148.498 47.8649 147.379 47.1381 146.636 45.7053L156.161 41.758C156.161 41.7622 155.827 40.9644 155.827 40.9644ZM146.114 43.3453C146.038 40.5926 148.252 39.1933 149.834 39.1933C151.083 39.1933 152.123 39.8073 152.478 40.7012L146.114 43.3453ZM138.375 50.25H141.503V29.3146H138.375V50.25ZM133.239 38.0237H133.126C132.42 37.1842 131.08 36.4239 129.368 36.4239C125.814 36.4239 122.54 39.5525 122.54 43.5709C122.54 47.5725 125.797 50.6635 129.368 50.6635C131.059 50.6635 132.42 49.8991 133.126 49.0428H133.239V50.0662C133.239 52.7855 131.786 54.2516 129.443 54.2516C127.526 54.2516 126.336 52.8732 125.851 51.7203L123.133 52.8565C123.914 54.7361 125.998 57.0628 129.439 57.0628C133.105 57.0628 136.212 54.9032 136.212 49.636V36.85H133.256V38.0237C133.26 38.0237 133.239 38.0237 133.239 38.0237ZM129.647 47.8691C127.488 47.8691 125.684 46.0646 125.684 43.5709C125.684 41.0563 127.488 39.2351 129.647 39.2351C131.786 39.2351 133.443 41.0772 133.443 43.5709C133.464 46.0646 131.79 47.8691 129.647 47.8691ZM170.472 29.3146H162.993V50.25H166.121V42.3219H170.476C173.938 42.3219 177.342 39.8115 177.342 35.8266C177.342 31.8417 173.951 29.3146 170.472 29.3146ZM170.564 39.398H166.117V32.2134H170.564C172.907 32.2134 174.231 34.1474 174.231 35.8057C174.231 37.4473 172.89 39.398 170.564 39.398ZM189.878 36.403C187.606 36.403 185.264 37.4097 184.295 39.6027L187.068 40.7555C187.665 39.6027 188.759 39.21 189.916 39.21C191.536 39.21 193.173 40.1791 193.211 41.9084V42.1298C192.651 41.8123 191.423 41.3278 189.953 41.3278C186.959 41.3278 183.923 42.9652 183.923 46.0353C183.923 48.8465 186.379 50.651 189.114 50.651C191.215 50.651 192.371 49.7028 193.094 48.6042H193.207V50.2249H196.222V42.205C196.222 38.4707 193.449 36.403 189.878 36.403ZM189.486 47.8691C188.463 47.8691 187.03 47.3678 187.03 46.0813C187.03 44.4606 188.818 43.8466 190.342 43.8466C191.72 43.8466 192.371 44.1431 193.19 44.5525C192.964 46.4322 191.377 47.8524 189.486 47.8691ZM207.221 36.85L203.63 45.9309H203.517L199.796 36.85H196.43L202.014 49.5441L198.832 56.5991H202.089L210.679 36.85H207.221ZM179.067 50.25H182.194V29.3146H179.067V50.25Z"
              fill="white"/>
        <path fill-rule="evenodd" clip-rule="evenodd"
              d="M17.4721 12.6186C16.9877 13.1408 16.7079 13.9386 16.7079 14.9828V52.0208C16.7079 53.0651 16.9877 53.8629 17.4888 54.3641L17.6183 54.4769L38.3648 33.7253V33.2616L17.6016 12.5058L17.4721 12.6186Z"
              fill="url(#paint0_linear_335_21159)"/>
        <path fill-rule="evenodd" clip-rule="evenodd"
              d="M45.2668 40.6636L38.3471 33.7422V33.2577L45.2668 26.3363L45.4172 26.4282L53.6022 31.0814C55.945 32.4014 55.945 34.5818 53.6022 35.9185L45.4172 40.5717L45.2668 40.6636Z"
              fill="url(#paint1_linear_335_21159)"/>
        <path fill-rule="evenodd" clip-rule="evenodd"
              d="M45.4172 40.5717L38.349 33.4998L17.4731 54.3809C18.2373 55.1996 19.5193 55.2915 20.9517 54.4937L45.4172 40.5717Z"
              fill="url(#paint2_linear_335_21159)"/>
        <path fill-rule="evenodd" clip-rule="evenodd"
              d="M45.4172 26.4282L20.9517 12.5268C19.5193 11.7081 18.2331 11.8209 17.4731 12.6396L38.349 33.4998L45.4172 26.4282Z"
              fill="url(#paint3_linear_335_21159)"/>
        <path fill-rule="evenodd" clip-rule="evenodd"
              d="M45.2698 40.4212L20.9694 54.2305C19.6122 55.0116 18.4012 54.9573 17.6203 54.2472L17.4908 54.3767L17.6203 54.4895C18.4012 55.1954 19.6122 55.2539 20.9694 54.4728L45.4369 40.5716L45.2698 40.4212Z"
              fill="#02293E"/>
        <path fill-rule="evenodd" clip-rule="evenodd"
              d="M53.6038 35.676L45.2476 40.4212L45.3979 40.5715L53.5829 35.9183C54.7564 35.25 55.3327 34.3728 55.3327 33.4998C55.2617 34.3018 54.6645 35.062 53.6038 35.676Z"
              fill="#02293E"/>
        <path fill-rule="evenodd" clip-rule="evenodd"
              d="M20.9508 12.7694L53.6031 31.3239C54.6638 31.9212 55.2609 32.7023 55.3528 33.5001C55.3528 32.6271 54.7757 31.7498 53.6022 31.0814L20.9517 12.5268C18.609 11.186 16.7079 12.3053 16.7079 14.9828V15.2255C16.7079 12.5438 18.608 11.4452 20.9508 12.7694Z"
              fill="white"/>
        <defs>
            <linearGradient id="paint0_linear_335_21159" x1="207.494" y1="3.31622" x2="115.593" y2="164.061"
                            gradientUnits="userSpaceOnUse">
                <stop stop-color="#00A0FF"/>
                <stop offset="0.00657" stop-color="#00A1FF"/>
                <stop offset="0.2601" stop-color="#00BEFF"/>
                <stop offset="0.5122" stop-color="#00D2FF"/>
                <stop offset="0.7604" stop-color="#00DFFF"/>
                <stop offset="1" stop-color="#00E3FF"/>
            </linearGradient>
            <linearGradient id="paint1_linear_335_21159" x1="244.321" y1="33.5003" x2="-296.352" y2="33.5003"
                            gradientUnits="userSpaceOnUse">
                <stop stop-color="#FFE000"/>
                <stop offset="0.4087" stop-color="#FFBD00"/>
                <stop offset="0.7754" stop-color="#FFA500"/>
                <stop offset="1" stop-color="#FF9C00"/>
            </linearGradient>
            <linearGradient id="paint2_linear_335_21159" x1="195.773" y1="11.9659" x2="154.897" y2="191.633"
                            gradientUnits="userSpaceOnUse">
                <stop stop-color="#FF3A44"/>
                <stop offset="1" stop-color="#C31162"/>
            </linearGradient>
            <linearGradient id="paint3_linear_335_21159" x1="-42.7" y1="-36.3009" x2="-24.4515" y2="43.9472"
                            gradientUnits="userSpaceOnUse">
                <stop stop-color="#32A071"/>
                <stop offset="0.0685" stop-color="#2DA771"/>
                <stop offset="0.4762" stop-color="#15CF74"/>
                <stop offset="0.8009" stop-color="#06E775"/>
                <stop offset="1" stop-color="#00F076"/>
            </linearGradient>
        </defs>
    </symbol>

    <symbol id="app-store-icon" viewBox="0 0 65 64">
        <rect x="0.200195" width="64" height="64" rx="14.2222"/>
        <path d="M43.973 31.6356C43.9951 29.9321 44.4512 28.2618 45.2988 26.7802C46.1463 25.2985 47.3579 24.0537 48.8207 23.1614C47.8914 21.8447 46.6655 20.761 45.2403 19.9966C43.8151 19.2321 42.2298 18.8079 40.6105 18.7576C37.1562 18.3979 33.8073 20.8085 32.0471 20.8085C30.2527 20.8085 27.5425 18.7934 24.6241 18.8529C22.7363 18.9134 20.8966 19.4581 19.2841 20.4338C17.6716 21.4095 16.3413 22.783 15.4229 24.4204C11.4445 31.2545 14.412 41.2982 18.223 46.8223C20.1297 49.5273 22.3581 52.5488 25.2739 52.4417C28.1272 52.3243 29.1929 50.6365 32.6371 50.6365C36.0493 50.6365 37.0491 52.4417 40.024 52.3735C43.0858 52.3242 45.0148 49.6565 46.8546 46.9259C48.2246 44.9985 49.2788 42.8683 49.9781 40.6142C48.1994 39.8678 46.6814 38.6183 45.6135 37.0217C44.5456 35.425 43.9751 33.5518 43.973 31.6356Z"
              fill="white"/>
        <path d="M38.3534 15.1242C40.0228 13.1359 40.8452 10.5803 40.6461 8C38.0956 8.26578 35.7397 9.47517 34.0478 11.3872C33.2206 12.3213 32.587 13.408 32.1833 14.5851C31.7796 15.7623 31.6137 17.0069 31.6951 18.2477C32.9708 18.2607 34.2328 17.9864 35.3861 17.4454C36.5395 16.9043 37.554 16.1107 38.3534 15.1242Z"
              fill="white"/>
    </symbol>

    <symbol id="google-play-icon" viewBox="0 0 65 64">
        <rect x="0.800293" width="64" height="64" rx="14.2222"/>
        <path fill-rule="evenodd" clip-rule="evenodd"
              d="M16.8451 11.3202C16.366 11.8373 16.0894 12.6273 16.0894 13.6614V50.3381C16.0894 51.3722 16.366 52.1622 16.8616 52.6586L16.9896 52.7702L37.5057 32.221V31.7619L16.9731 11.2086L16.8451 11.3202Z"
              fill="url(#paint0_linear_335_21145)"/>
        <path fill-rule="evenodd" clip-rule="evenodd"
              d="M44.3312 39.0917L37.4883 32.2378V31.758L44.3312 24.9041L44.4799 24.9951L52.574 29.603C54.8908 30.91 54.8908 33.0692 52.574 34.3928L44.4799 39.0007L44.3312 39.0917Z"
              fill="url(#paint1_linear_335_21145)"/>
        <path fill-rule="evenodd" clip-rule="evenodd"
              d="M44.4799 39.0007L37.4902 31.9977L16.846 52.6751C17.6017 53.4859 18.8695 53.5769 20.286 52.7868L44.4799 39.0007Z"
              fill="url(#paint2_linear_335_21145)"/>
        <path fill-rule="evenodd" clip-rule="evenodd"
              d="M44.4799 24.9951L20.286 11.2293C18.8695 10.4186 17.5976 10.5303 16.846 11.341L37.4902 31.9977L44.4799 24.9951Z"
              fill="url(#paint3_linear_335_21145)"/>
        <path fill-rule="evenodd" clip-rule="evenodd"
              d="M44.3341 38.8517L20.3036 52.5263C18.9614 53.2997 17.7638 53.246 16.9916 52.5428L16.8635 52.671L16.9916 52.7827C17.7638 53.4817 18.9614 53.5396 20.3036 52.7662L44.4993 39.0006L44.3341 38.8517Z"
              fill="#00617A"/>
        <path fill-rule="evenodd" clip-rule="evenodd"
              d="M52.5756 34.1527L44.3122 38.8516L44.4608 39.0005L52.5549 34.3926C53.7154 33.7308 54.2853 32.8622 54.2853 31.9977C54.2151 32.7919 53.6245 33.5447 52.5756 34.1527Z"
              fill="#00617A"/>
        <path fill-rule="evenodd" clip-rule="evenodd"
              d="M20.2851 11.4695L52.5748 29.843C53.6238 30.4345 54.2143 31.208 54.3052 31.998C54.3052 31.1336 53.7345 30.2648 52.574 29.603L20.286 11.2293C17.9693 9.90155 16.0894 11.01 16.0894 13.6614V13.9017C16.0894 11.2462 17.9683 10.1583 20.2851 11.4695Z"
              fill="white"/>
        <defs>
            <linearGradient id="paint0_linear_335_21145" x1="51.0272" y1="12.7788" x2="-0.720401" y2="36.711"
                            gradientUnits="userSpaceOnUse">
                <stop stop-color="#00A0FF"/>
                <stop offset="0.00657" stop-color="#00A1FF"/>
                <stop offset="0.2601" stop-color="#00BEFF"/>
                <stop offset="0.5122" stop-color="#00D2FF"/>
                <stop offset="0.7604" stop-color="#00DFFF"/>
                <stop offset="1" stop-color="#00E3FF"/>
            </linearGradient>
            <linearGradient id="paint1_linear_335_21145" x1="57.2281" y1="32.0005" x2="-33.8104" y2="32.0005"
                            gradientUnits="userSpaceOnUse">
                <stop stop-color="#FFE000"/>
                <stop offset="0.4087" stop-color="#FFBD00"/>
                <stop offset="0.7754" stop-color="#FFA500"/>
                <stop offset="1" stop-color="#FF9C00"/>
            </linearGradient>
            <linearGradient id="paint2_linear_335_21145" x1="49.0535" y1="18.2871" x2="-10.4417" y2="87.4316"
                            gradientUnits="userSpaceOnUse">
                <stop stop-color="#FF3A44"/>
                <stop offset="1" stop-color="#C31162"/>
            </linearGradient>
            <linearGradient id="paint3_linear_335_21145" x1="8.89954" y1="-12.45" x2="35.4699" y2="18.4445"
                            gradientUnits="userSpaceOnUse">
                <stop stop-color="#32A071"/>
                <stop offset="0.0685" stop-color="#2DA771"/>
                <stop offset="0.4762" stop-color="#15CF74"/>
                <stop offset="0.8009" stop-color="#06E775"/>
                <stop offset="1" stop-color="#00F076"/>
            </linearGradient>
        </defs>
    </symbol>
    <symbol id="arrow-left" viewBox="0 0 80 80">
        <rect width="80" height="80" rx="40"/>
        <path d="M54.3971 40.3639L43.7691 29.7359L38.4551 24.4219M54.3971 40.3639L43.7691 50.9919L38.4551 56.306M54.3971 40.3639H22.513"
              stroke="#55FFFC" stroke-width="6" stroke-linecap="round"/>

    </symbol>
    <symbol id="star" viewBox="0 0 18 19">
        <path xmlns="http://www.w3.org/2000/svg"
              d="M13.1697 16.3328C13.2304 16.2319 13.2666 16.0462 13.2369 15.6559C13.2079 15.2751 13.1236 14.7648 13.0064 14.058L12.7251 12.362C12.7223 12.3454 12.7196 12.3291 12.7169 12.313C12.6563 11.9483 12.6144 11.6963 12.6546 11.4545C12.69 11.2414 12.7718 11.0388 12.8944 10.8609C13.0334 10.6591 13.2387 10.5069 13.5356 10.2867C13.5487 10.277 13.562 10.2671 13.5755 10.2571L14.9561 9.23241C15.5313 8.80546 15.9465 8.49696 16.2318 8.24314C16.5243 7.98299 16.6273 7.8243 16.6537 7.70961C16.717 7.43459 16.645 7.14581 16.46 6.93273C16.3828 6.84389 16.2174 6.75211 15.837 6.65969C15.4659 6.56955 14.9545 6.49209 14.2462 6.38514L12.5461 6.12859C12.5296 6.12607 12.5132 6.1236 12.497 6.12114C12.1314 6.06612 11.8789 6.02808 11.6613 5.91524C11.4696 5.81571 11.3022 5.67518 11.1708 5.50366C11.0219 5.30905 10.9406 5.06687 10.8229 4.7164C10.8177 4.70095 10.8124 4.68524 10.8071 4.66932L10.2592 3.03969C10.0309 2.36067 9.86579 1.87047 9.71258 1.52066C9.55548 1.16209 9.43638 1.01514 9.33551 0.954547C9.09347 0.809346 8.79662 0.788578 8.53682 0.898727C8.42845 0.94463 8.29006 1.0736 8.08459 1.40686C7.88422 1.73191 7.65249 2.19436 7.33188 2.83501L6.56255 4.37252C6.55503 4.38755 6.54759 4.40232 6.54028 4.41692C6.37496 4.74762 6.26077 4.9761 6.08622 5.14811C5.93228 5.29969 5.74694 5.41554 5.54322 5.48735C5.31211 5.56892 5.05669 5.57144 4.68701 5.57504C4.67066 5.57518 4.6541 5.57536 4.6373 5.57553L2.91814 5.59303C2.20178 5.6003 1.6846 5.60589 1.30454 5.64347C0.914982 5.68204 0.738388 5.74989 0.649638 5.82718C0.436723 6.01242 0.325281 6.28838 0.3497 6.56953C0.359875 6.68675 0.439782 6.85827 0.693205 7.15658C0.940473 7.44766 1.30866 7.81093 1.8189 8.31381L3.04338 9.52059C3.05533 9.53238 3.06714 9.54401 3.07879 9.5555C3.34219 9.81486 3.5242 9.9941 3.63383 10.2133C3.73044 10.4065 3.78332 10.6186 3.78872 10.8346C3.79484 11.0795 3.71828 11.3233 3.60747 11.676C3.6026 11.6916 3.59761 11.7073 3.59258 11.7233L3.07801 13.3638C2.86357 14.0473 2.70903 14.541 2.62735 14.914C2.54363 15.2964 2.55362 15.4853 2.59967 15.5936C2.71009 15.8534 2.93804 16.0446 3.213 16.1083C3.32765 16.1348 3.51542 16.1118 3.87749 15.963C4.2307 15.8178 4.68997 15.5799 5.3259 15.25L6.85206 14.4584C6.86695 14.4506 6.88164 14.443 6.89613 14.4355C7.22426 14.2651 7.45097 14.1474 7.6933 14.1109C7.9069 14.0787 8.12496 14.094 8.332 14.1556C8.56689 14.2254 8.77501 14.3736 9.07624 14.5879C9.08954 14.5974 9.10303 14.607 9.1167 14.6167L10.5178 15.6131C11.1017 16.0282 11.5233 16.3277 11.8529 16.5207C12.1908 16.7185 12.3735 16.7674 12.4907 16.7571C12.7719 16.7323 13.0242 16.5746 13.1697 16.3328Z"
              fill="#F7BA23"/>
    </symbol>

    <symbol id="icon-mail" viewBox="0 0 32 32">
        <circle cx="16" cy="16" r="16"/>
        <path d="M8.86173 24.1107C8.08819 24.1107 7.34632 23.8034 6.79934 23.2565C6.25236 22.7095 5.94507 21.9676 5.94507 21.1941V11.4718C5.94507 10.6983 6.25236 9.95643 6.79934 9.40945C7.34632 8.86247 8.08819 8.55518 8.86173 8.55518H22.4728C23.2464 8.55518 23.9883 8.86247 24.5352 9.40945C25.0822 9.95643 25.3895 10.6983 25.3895 11.4718V21.1941C25.3895 21.9676 25.0822 22.7095 24.5352 23.2565C23.9883 23.8034 23.2464 24.1107 22.4728 24.1107H8.86173ZM11.4138 12.658C11.3148 12.5734 11.1998 12.5096 11.0756 12.4703C10.9514 12.4311 10.8206 12.4171 10.691 12.4294C10.5613 12.4417 10.4355 12.4798 10.3209 12.5417C10.2062 12.6035 10.1052 12.6877 10.0238 12.7894C9.94235 12.891 9.88217 13.0079 9.8468 13.1333C9.81144 13.2586 9.80161 13.3898 9.81791 13.519C9.83421 13.6482 9.8763 13.7728 9.94169 13.8854C10.0071 13.9981 10.0944 14.0964 10.1985 14.1746L13.8444 17.0923C14.3617 17.5064 15.0046 17.7321 15.6673 17.7321C16.33 17.7321 16.9729 17.5064 17.4902 17.0923L21.136 14.1756C21.2358 14.0958 21.3188 13.9971 21.3804 13.8853C21.4419 13.7734 21.4809 13.6505 21.495 13.5235C21.5091 13.3966 21.498 13.2681 21.4624 13.1455C21.4269 13.0228 21.3675 12.9084 21.2877 12.8086C21.2079 12.7089 21.1093 12.6259 20.9974 12.5643C20.8855 12.5027 20.7626 12.4638 20.6356 12.4497C20.5087 12.4356 20.3802 12.4467 20.2576 12.4822C20.1349 12.5178 20.0205 12.5772 19.9208 12.657L16.2749 15.5736C16.1025 15.7117 15.8882 15.7869 15.6673 15.7869C15.4464 15.7869 15.2321 15.7117 15.0597 15.5736L11.4138 12.658Z"
              fill="white"/>
    </symbol>

    <symbol id="icon-telegram" viewBox="0 0 32 32">
        <circle cx="16" cy="16" r="16"/>
        <path fill-rule="evenodd" clip-rule="evenodd"
              d="M6.59142 15.8642C11.5053 13.7234 14.782 12.3119 16.4215 11.63C21.1026 9.683 22.0752 9.34478 22.7092 9.33362C22.8487 9.33116 23.1604 9.36572 23.3624 9.52959C23.5329 9.66796 23.5798 9.85488 23.6023 9.98607C23.6247 10.1173 23.6527 10.4161 23.6305 10.6496C23.3768 13.315 22.2792 19.783 21.7208 22.7682C21.4845 24.0314 21.0192 24.4549 20.5688 24.4963C19.59 24.5864 18.8467 23.8495 17.8986 23.228C16.415 22.2555 15.5769 21.6501 14.1369 20.7012C12.4727 19.6045 13.5515 19.0017 14.5 18.0166C14.7482 17.7588 19.061 13.8359 19.1445 13.4801C19.155 13.4356 19.1646 13.2697 19.0661 13.1821C18.9675 13.0945 18.8221 13.1244 18.7171 13.1482C18.5683 13.182 16.1983 14.7485 11.6071 17.8477C10.9344 18.3096 10.3251 18.5347 9.77916 18.5229C9.17732 18.5099 8.01961 18.1826 7.15897 17.9028C6.10336 17.5597 5.26439 17.3783 5.33744 16.7955C5.37549 16.492 5.79349 16.1816 6.59142 15.8642Z"
              fill="white"/>
    </symbol>


</svg>