<svg width="152" height="40" viewBox="0 0 152 40" fill="none" xmlns="http://www.w3.org/2000/svg">
<path d="M17.1998 1.57129H17.1944C15.7589 1.57329 14.592 2.71929 14.594 4.12596C14.5967 5.52662 15.7657 6.66796 17.1991 6.66796C18.6373 6.66529 19.8083 5.51929 19.8063 4.11462C19.8036 2.71262 18.6339 1.57129 17.1998 1.57129Z" fill="#00B9BF"/>
<path d="M17.1998 28.6436H17.1944C15.7589 28.6456 14.592 29.7909 14.594 31.1976C14.5967 32.5989 15.7657 33.7402 17.1991 33.7402C18.6373 33.7376 19.8083 32.5922 19.8063 31.1862C19.8036 29.7849 18.6339 28.6436 17.1998 28.6436Z" fill="#00B9BF"/>
<path d="M27.0334 4.76172H27.0252C25.0929 4.76505 23.5217 6.30705 23.5252 8.20038C23.5286 10.0897 25.1017 11.6257 27.0321 11.6257C28.9706 11.6224 30.5458 10.0804 30.5431 8.18705C30.5403 6.29839 28.9644 4.76172 27.0334 4.76172Z" fill="#00B9BF"/>
<path d="M27.0334 23.6914H27.0252C25.0929 23.6941 23.5217 25.2374 23.5252 27.1307C23.5286 29.0194 25.1017 30.5554 27.0321 30.5554C28.9706 30.5527 30.5458 29.0094 30.5431 27.1167C30.5403 25.2281 28.9644 23.6914 27.0334 23.6914Z" fill="#00B9BF"/>
<path d="M4.86396 17.5968C4.86396 18.4282 4.17553 19.1022 3.32487 19.1022C2.47422 19.1022 1.78442 18.4282 1.78442 17.5968C1.78442 16.7648 2.47422 16.0908 3.32487 16.0908C4.17553 16.0908 4.86396 16.7648 4.86396 17.5968Z" fill="#00B9BF"/>
<path d="M9.14923 8.1948C9.14923 9.21014 8.30744 10.0341 7.26866 10.0341C6.22919 10.0341 5.38672 9.21014 5.38672 8.1948C5.38672 7.1788 6.22919 6.35547 7.26866 6.35547C8.30744 6.35547 9.14923 7.1788 9.14923 8.1948Z" fill="#00B9BF"/>
<path d="M9.14923 27.1235C9.14923 28.1388 8.30744 28.9628 7.26866 28.9628C6.22919 28.9628 5.38672 28.1388 5.38672 27.1235C5.38672 26.1082 6.22919 25.2842 7.26866 25.2842C8.30744 25.2842 9.14923 26.1082 9.14923 27.1235Z" fill="#00B9BF"/>
<path d="M31.019 13.084H31.0088C28.4684 13.0887 26.4038 15.1167 26.4065 17.6053C26.4119 20.0873 28.48 22.108 31.0176 22.108C33.5662 22.1027 35.6376 20.0747 35.6342 17.586C35.6294 15.1033 33.5587 13.084 31.019 13.084Z" fill="#00B9BF"/>
<path d="M104.98 8.93945C101.43 8.93945 96.0605 10.6788 96.0605 17.4601C96.0605 24.2428 101.913 25.9228 104.98 25.9228C108.048 25.9228 113.903 24.2428 113.903 17.4601C113.903 10.6788 108.531 8.93945 104.98 8.93945ZM109.41 17.4308C109.41 21.8295 106.846 22.9188 104.985 22.9188C103.123 22.9188 100.556 21.8295 100.555 17.4308C100.555 13.0321 103.273 11.9428 104.98 11.9428C106.688 11.9428 109.41 13.0321 109.41 17.4308Z" fill="#00B9BF"/>
<path d="M89.0326 16.7545L95.9448 9.11718H90.9234L84.5864 16.1852V4.18985C84.5864 3.10785 83.9082 1.55052 81.2165 1.58252C80.9214 1.58585 80.5969 1.60452 80.2595 1.65385V25.7079H84.5864V17.2979L91.4223 25.7105H96.3511L89.0326 16.7545Z" fill="#00B9BF"/>
<path d="M125.695 8.95576C123.089 8.95576 121.517 9.86043 120.83 10.3791V10.3724C120.739 10.4318 120.648 10.4911 120.557 10.5531C120.144 9.7471 119.236 8.94043 117.361 8.94043C117.057 8.94043 116.723 8.96243 116.376 9.0111V25.7258H120.83V13.2058C122.012 12.0918 125.298 11.5044 126.795 13.0091C127.639 13.8571 127.807 15.0544 127.807 16.1751V25.7258H132.261V15.3538C132.261 11.0991 128.906 8.95576 125.695 8.95576Z" fill="#00B9BF"/>
<path d="M53.0146 8.92285C48.7422 8.92285 45.6995 10.8962 45.6995 10.8962L47.0409 13.2529C49.0544 12.1722 52.0413 11.6189 53.87 12.0229C55.2128 12.3195 55.7799 13.2162 56.0669 14.0535C56.2161 14.4895 56.1828 15.8689 56.1828 15.8689V15.4235C53.8101 14.9009 44.8618 13.7609 44.8618 20.6875C44.8618 23.2675 46.5413 25.3595 50.1702 25.8169C52.35 26.0909 54.369 25.6482 56.1828 24.4735C56.2734 24.4149 56.3647 24.3555 56.4547 24.2929C56.8685 25.0989 57.7764 25.9062 59.6508 25.9062C59.9555 25.9062 60.2888 25.8835 60.6364 25.8342V14.6022C60.6364 10.0175 55.8549 8.92285 53.0146 8.92285ZM56.1828 17.9429V21.6395C54.4269 22.7142 52.9253 22.9022 52.0522 22.9022C51.0352 22.9022 49.2678 22.5155 49.1614 20.4282C48.9747 16.7622 53.7801 17.3122 56.1828 17.8195V17.9429Z" fill="#00B9BF"/>
<path d="M69.1184 15.0662C67.4083 14.4989 67.2917 13.8289 67.4526 13.1442C67.9161 11.1655 72.7112 11.8302 75.3729 13.1455L76.6864 10.7722C75.2584 9.85819 72.7173 8.92285 69.9289 8.92285C67.505 8.92285 65.2905 9.51419 64.0595 11.3255C62.8837 13.0549 63.0575 15.6742 65.058 17.0835C66.5842 18.1589 69.4299 18.9582 71.438 19.3775C72.6751 19.6355 73.7111 20.1555 73.3949 21.5009C73.0432 22.9955 69.5356 24.1349 64.7936 20.5589L63.1052 22.6995C63.1052 22.6995 65.7315 25.6622 70.07 25.9049C74.5277 26.1549 77.8186 23.7769 77.5963 20.5102C77.3271 16.5409 73.2354 16.4315 69.1184 15.0662Z" fill="#00B9BF"/>
<path d="M142.753 8.92285C138.481 8.92285 135.438 10.8962 135.438 10.8962L136.779 13.2529C138.792 12.1722 141.78 11.6189 143.608 12.0229C144.952 12.3195 145.518 13.2162 145.805 14.0535C145.954 14.4895 145.921 15.8689 145.921 15.8689V15.4235C143.548 14.9009 134.6 13.7609 134.6 20.6875C134.6 23.2675 136.279 25.3595 139.908 25.8169C142.088 26.0909 144.107 25.6482 145.921 24.4735C146.012 24.4149 146.103 24.3555 146.193 24.2929C146.606 25.0989 147.514 25.9062 149.39 25.9062C149.694 25.9062 150.028 25.8835 150.374 25.8342V14.6022C150.374 10.0175 145.593 8.92285 142.753 8.92285ZM145.921 17.9429V21.6395C144.165 22.7142 142.664 22.9022 141.791 22.9022C140.774 22.9022 139.006 22.5155 138.899 20.4282C138.713 16.7622 143.519 17.3122 145.921 17.8195V17.9429Z" fill="#00B9BF"/>
<path d="M68.1717 37.1389C67.6926 36.6602 67.4526 36.0789 67.4526 35.3749C67.4526 34.6722 67.6926 34.0909 68.1717 33.6215C68.6516 33.1429 69.2555 32.9082 69.9753 32.9082C70.9241 32.9082 71.7202 33.3869 72.0944 34.1375L71.3944 34.5315C71.1545 34.0342 70.6174 33.7062 69.9753 33.7062C69.4954 33.7062 69.0926 33.8655 68.7668 34.1842C68.4498 34.5035 68.2869 34.8975 68.2869 35.3749C68.2869 35.8449 68.4498 36.2382 68.7668 36.5575C69.0926 36.8762 69.4954 37.0362 69.9753 37.0362C70.6174 37.0362 71.1545 36.7169 71.423 36.2195L72.1326 36.6235C71.7202 37.3642 70.905 37.8429 69.9753 37.8429C69.2555 37.8429 68.6516 37.6082 68.1717 37.1389Z" fill="#00B9BF"/>
<path d="M77.3108 33.0303V37.7196H76.4765V33.8083H73.9927V37.7196H73.1584V33.0303H77.3108Z" fill="#00B9BF"/>
<path d="M82.2498 33.0303H82.9212V37.7196H82.0964V34.4276L79.4395 37.7196H78.7688V33.0303H79.5936V36.3223L82.2498 33.0303Z" fill="#00B9BF"/>
<path d="M87.946 33.0303V33.8183H86.3156V37.7196H85.4813V33.8183H83.8413V33.0303H87.946Z" fill="#00B9BF"/>
<path d="M89.2601 35.7502C89.423 36.5849 90.0849 37.0729 90.9955 37.0729C91.6287 37.0729 92.0888 36.8475 92.3771 36.3875L93.0867 36.7822C92.6164 37.4855 91.9164 37.8422 90.9771 37.8422C90.2192 37.8422 89.5955 37.6075 89.1163 37.1482C88.6467 36.6789 88.4067 36.0875 88.4067 35.3749C88.4067 34.6715 88.6364 34.0802 89.1068 33.6115C89.5764 33.1422 90.181 32.9082 90.9192 32.9082C91.6192 32.9082 92.1945 33.1522 92.6362 33.6395C93.0867 34.1182 93.3069 34.6995 93.3069 35.3849C93.3069 35.5062 93.2973 35.6282 93.2782 35.7502H89.2601ZM89.2601 35.0375H92.463C92.3192 34.1462 91.6867 33.6775 90.9192 33.6775C90.0269 33.6775 89.4039 34.2122 89.2601 35.0375Z" fill="#00B9BF"/>
<path d="M95.3203 36.7539L94.6966 39.0332H93.9775L94.3613 36.7539H95.3203Z" fill="#00B9BF"/>
<path d="M102.302 33.0303H103.136V37.7196H102.302V36.0316C101.918 36.1909 101.487 36.2756 101.008 36.2756C99.7794 36.2756 99.0793 35.7036 99.0793 34.5869V33.0303H99.9143V34.5403C99.9143 35.2436 100.307 35.5163 101.065 35.5163C101.515 35.5163 101.928 35.4316 102.302 35.2716V33.0303Z" fill="#00B9BF"/>
<path d="M108.161 33.0303V33.8183H106.531V37.7196H105.697V33.8183H104.057V33.0303H108.161Z" fill="#00B9BF"/>
<path d="M111.143 37.8422C110.443 37.8422 109.839 37.6075 109.35 37.1295C108.861 36.6509 108.621 36.0695 108.621 35.3749C108.621 34.6809 108.861 34.0995 109.35 33.6209C109.839 33.1422 110.443 32.9082 111.143 32.9082C111.843 32.9082 112.448 33.1422 112.937 33.6209C113.426 34.0995 113.675 34.6809 113.675 35.3749C113.675 36.0695 113.426 36.6509 112.937 37.1295C112.448 37.6075 111.844 37.8422 111.143 37.8422ZM112.352 36.5662C112.679 36.2469 112.841 35.8535 112.841 35.3749C112.841 34.8969 112.679 34.5029 112.352 34.1842C112.026 33.8649 111.624 33.7055 111.144 33.7055C110.674 33.7055 110.272 33.8649 109.945 34.1842C109.619 34.5029 109.456 34.8969 109.456 35.3749C109.456 35.8535 109.619 36.2469 109.945 36.5662C110.272 36.8855 110.674 37.0449 111.144 37.0449C111.624 37.0449 112.026 36.8855 112.352 36.5662Z" fill="#00B9BF"/>
<path d="M115.277 37.1582C114.817 36.6989 114.586 36.1169 114.586 35.3942C114.586 34.5975 114.701 33.9782 114.941 33.5469C115.181 33.1155 115.679 32.7215 116.418 32.3742C116.552 32.3089 116.734 32.2335 116.964 32.1302L117.482 31.9056C117.847 31.7269 118.259 31.4269 118.298 31.0049L118.969 31.3802C118.931 31.5769 118.873 31.7462 118.748 31.9056C118.634 32.0556 118.585 32.1489 118.365 32.2895C118.163 32.4122 118.135 32.4489 117.857 32.5715C117.722 32.6369 117.626 32.6742 117.578 32.7022L117.262 32.8342L116.955 32.9555C116.082 33.3215 115.746 33.6495 115.564 34.2222C115.977 33.7255 116.639 33.4902 117.252 33.4902C117.857 33.4902 118.365 33.6876 118.777 34.0909C119.199 34.4942 119.41 35.0102 119.41 35.6389C119.41 36.2769 119.19 36.8015 118.739 37.2242C118.288 37.6369 117.722 37.8429 117.032 37.8429C116.322 37.8429 115.737 37.6175 115.277 37.1582ZM117.06 34.2129C116.648 34.2129 116.283 34.3442 115.948 34.5975C115.622 34.8509 115.459 35.1789 115.459 35.5915C115.459 36.0135 115.612 36.3702 115.91 36.6422C116.207 36.9142 116.581 37.0549 117.032 37.0549C117.482 37.0549 117.847 36.9236 118.135 36.6515C118.432 36.3795 118.576 36.0415 118.576 35.6389C118.576 34.8042 117.971 34.2129 117.06 34.2129Z" fill="#00B9BF"/>
<path d="M122.507 34.7189C122.987 34.7189 123.38 34.8589 123.697 35.1403C124.013 35.4129 124.176 35.7783 124.176 36.2196C124.176 36.6603 124.013 37.0256 123.697 37.3069C123.38 37.5796 122.987 37.7203 122.507 37.7203H120.484V33.0303H121.318V34.7189H122.507ZM122.507 36.9603C122.977 36.9603 123.352 36.6696 123.352 36.2196C123.352 35.7696 122.977 35.4696 122.507 35.4696H121.318V36.9603H122.507ZM124.799 33.0303H125.634V37.7196H124.799V33.0303Z" fill="#00B9BF"/>
<path d="M135.588 37.7206H134.61L132.817 35.4979V37.7206H131.992V35.4979L130.199 37.7206H129.23L131.234 35.3006L129.325 33.0312H130.294L131.992 35.1039V33.0312H132.817V35.1039L134.514 33.0312H135.492L133.574 35.3006L135.588 37.7206Z" fill="#00B9BF"/>
<path d="M140.057 33.0303H140.728V37.7196H139.903V34.4276L137.246 37.7196H136.576V33.0303H137.4V36.3223L140.057 33.0303Z" fill="#00B9BF"/>
<path d="M145.753 33.0303V33.8183H144.123V37.7196H143.288V33.8183H141.648V33.0303H145.753Z" fill="#00B9BF"/>
<path d="M148.697 34.7189C149.177 34.7189 149.569 34.8596 149.886 35.1409C150.202 35.4129 150.365 35.7789 150.365 36.2196C150.365 36.6603 150.202 37.0263 149.886 37.3076C149.569 37.5796 149.177 37.7203 148.697 37.7203H146.673V33.0303H147.507V34.7189H148.697ZM148.697 36.9603C149.166 36.9603 149.541 36.6696 149.541 36.2196C149.541 35.7696 149.166 35.4696 148.697 35.4696H147.507V36.9603H148.697Z" fill="#00B9BF"/>
</svg>
