<svg width="152" height="152" viewBox="0 0 152 152" fill="none" xmlns="http://www.w3.org/2000/svg">
<rect width="152" height="152" rx="16" fill="white"/>
<path d="M9.72803 9.72754H14.2985V14.298H9.72803V9.72754ZM14.2985 9.72754H18.869V14.298H14.2985V9.72754ZM18.869 9.72754H23.4395V14.298H18.869V9.72754ZM23.4395 9.72754H28.01V14.298H23.4395V9.72754ZM28.01 9.72754H32.5804V14.298H28.01V9.72754ZM32.5804 9.72754H37.1509V14.298H32.5804V9.72754ZM37.1509 9.72754H41.7214V14.298H37.1509V9.72754ZM60.0033 9.72754H64.5738V14.298H60.0033V9.72754ZM64.5738 9.72754H69.1443V14.298H64.5738V9.72754ZM69.1443 9.72754H73.7148V14.298H69.1443V9.72754ZM73.7148 9.72754H78.2853V14.298H73.7148V9.72754ZM91.9967 9.72754H96.5672V14.298H91.9967V9.72754ZM96.5672 9.72754H101.138V14.298H96.5672V9.72754ZM110.279 9.72754H114.849V14.298H110.279V9.72754ZM114.849 9.72754H119.42V14.298H114.849V9.72754ZM119.42 9.72754H123.99V14.298H119.42V9.72754ZM123.99 9.72754H128.561V14.298H123.99V9.72754ZM128.561 9.72754H133.131V14.298H128.561V9.72754ZM133.131 9.72754H137.702V14.298H133.131V9.72754ZM137.702 9.72754H142.272V14.298H137.702V9.72754ZM9.72803 14.298H14.2985V18.8685H9.72803V14.298ZM37.1509 14.298H41.7214V18.8685H37.1509V14.298ZM55.4329 14.298H60.0033V18.8685H55.4329V14.298ZM64.5738 14.298H69.1443V18.8685H64.5738V14.298ZM82.8558 14.298H87.4262V18.8685H82.8558V14.298ZM87.4262 14.298H91.9967V18.8685H87.4262V14.298ZM91.9967 14.298H96.5672V18.8685H91.9967V14.298ZM101.138 14.298H105.708V18.8685H101.138V14.298ZM110.279 14.298H114.849V18.8685H110.279V14.298ZM137.702 14.298H142.272V18.8685H137.702V14.298ZM9.72803 18.8685H14.2985V23.439H9.72803V18.8685ZM18.869 18.8685H23.4395V23.439H18.869V18.8685ZM23.4395 18.8685H28.01V23.439H23.4395V18.8685ZM28.01 18.8685H32.5804V23.439H28.01V18.8685ZM37.1509 18.8685H41.7214V23.439H37.1509V18.8685ZM46.2919 18.8685H50.8624V23.439H46.2919V18.8685ZM50.8624 18.8685H55.4329V23.439H50.8624V18.8685ZM55.4329 18.8685H60.0033V23.439H55.4329V18.8685ZM64.5738 18.8685H69.1443V23.439H64.5738V18.8685ZM73.7148 18.8685H78.2853V23.439H73.7148V18.8685ZM78.2853 18.8685H82.8558V23.439H78.2853V18.8685ZM82.8558 18.8685H87.4262V23.439H82.8558V18.8685ZM87.4262 18.8685H91.9967V23.439H87.4262V18.8685ZM91.9967 18.8685H96.5672V23.439H91.9967V18.8685ZM96.5672 18.8685H101.138V23.439H96.5672V18.8685ZM101.138 18.8685H105.708V23.439H101.138V18.8685ZM110.279 18.8685H114.849V23.439H110.279V18.8685ZM119.42 18.8685H123.99V23.439H119.42V18.8685ZM123.99 18.8685H128.561V23.439H123.99V18.8685ZM128.561 18.8685H133.131V23.439H128.561V18.8685ZM137.702 18.8685H142.272V23.439H137.702V18.8685ZM9.72803 23.439H14.2985V28.0095H9.72803V23.439ZM18.869 23.439H23.4395V28.0095H18.869V23.439ZM23.4395 23.439H28.01V28.0095H23.4395V23.439ZM28.01 23.439H32.5804V28.0095H28.01V23.439ZM37.1509 23.439H41.7214V28.0095H37.1509V23.439ZM55.4329 23.439H60.0033V28.0095H55.4329V23.439ZM69.1443 23.439H73.7148V28.0095H69.1443V23.439ZM73.7148 23.439H78.2853V28.0095H73.7148V23.439ZM91.9967 23.439H96.5672V28.0095H91.9967V23.439ZM96.5672 23.439H101.138V28.0095H96.5672V23.439ZM110.279 23.439H114.849V28.0095H110.279V23.439ZM119.42 23.439H123.99V28.0095H119.42V23.439ZM123.99 23.439H128.561V28.0095H123.99V23.439ZM128.561 23.439H133.131V28.0095H128.561V23.439ZM137.702 23.439H142.272V28.0095H137.702V23.439ZM9.72803 28.0095H14.2985V32.58H9.72803V28.0095ZM18.869 28.0095H23.4395V32.58H18.869V28.0095ZM23.4395 28.0095H28.01V32.58H23.4395V28.0095ZM28.01 28.0095H32.5804V32.58H28.01V28.0095ZM37.1509 28.0095H41.7214V32.58H37.1509V28.0095ZM46.2919 28.0095H50.8624V32.58H46.2919V28.0095ZM64.5738 28.0095H69.1443V32.58H64.5738V28.0095ZM69.1443 28.0095H73.7148V32.58H69.1443V28.0095ZM73.7148 28.0095H78.2853V32.58H73.7148V28.0095ZM82.8558 28.0095H87.4262V32.58H82.8558V28.0095ZM91.9967 28.0095H96.5672V32.58H91.9967V28.0095ZM110.279 28.0095H114.849V32.58H110.279V28.0095ZM119.42 28.0095H123.99V32.58H119.42V28.0095ZM123.99 28.0095H128.561V32.58H123.99V28.0095ZM128.561 28.0095H133.131V32.58H128.561V28.0095ZM137.702 28.0095H142.272V32.58H137.702V28.0095ZM9.72803 32.58H14.2985V37.1504H9.72803V32.58ZM37.1509 32.58H41.7214V37.1504H37.1509V32.58ZM46.2919 32.58H50.8624V37.1504H46.2919V32.58ZM69.1443 32.58H73.7148V37.1504H69.1443V32.58ZM73.7148 32.58H78.2853V37.1504H73.7148V32.58ZM91.9967 32.58H96.5672V37.1504H91.9967V32.58ZM96.5672 32.58H101.138V37.1504H96.5672V32.58ZM101.138 32.58H105.708V37.1504H101.138V32.58ZM110.279 32.58H114.849V37.1504H110.279V32.58ZM137.702 32.58H142.272V37.1504H137.702V32.58ZM9.72803 37.1504H14.2985V41.7209H9.72803V37.1504ZM14.2985 37.1504H18.869V41.7209H14.2985V37.1504ZM18.869 37.1504H23.4395V41.7209H18.869V37.1504ZM23.4395 37.1504H28.01V41.7209H23.4395V37.1504ZM28.01 37.1504H32.5804V41.7209H28.01V37.1504ZM32.5804 37.1504H37.1509V41.7209H32.5804V37.1504ZM37.1509 37.1504H41.7214V41.7209H37.1509V37.1504ZM46.2919 37.1504H50.8624V41.7209H46.2919V37.1504ZM55.4329 37.1504H60.0033V41.7209H55.4329V37.1504ZM64.5738 37.1504H69.1443V41.7209H64.5738V37.1504ZM73.7148 37.1504H78.2853V41.7209H73.7148V37.1504ZM82.8558 37.1504H87.4262V41.7209H82.8558V37.1504ZM91.9967 37.1504H96.5672V41.7209H91.9967V37.1504ZM101.138 37.1504H105.708V41.7209H101.138V37.1504ZM110.279 37.1504H114.849V41.7209H110.279V37.1504ZM114.849 37.1504H119.42V41.7209H114.849V37.1504ZM119.42 37.1504H123.99V41.7209H119.42V37.1504ZM123.99 37.1504H128.561V41.7209H123.99V37.1504ZM128.561 37.1504H133.131V41.7209H128.561V37.1504ZM133.131 37.1504H137.702V41.7209H133.131V37.1504ZM137.702 37.1504H142.272V41.7209H137.702V37.1504ZM50.8624 41.7209H55.4329V46.2914H50.8624V41.7209ZM87.4262 41.7209H91.9967V46.2914H87.4262V41.7209ZM91.9967 41.7209H96.5672V46.2914H91.9967V41.7209ZM101.138 41.7209H105.708V46.2914H101.138V41.7209ZM14.2985 46.2914H18.869V50.8619H14.2985V46.2914ZM28.01 46.2914H32.5804V50.8619H28.01V46.2914ZM37.1509 46.2914H41.7214V50.8619H37.1509V46.2914ZM46.2919 46.2914H50.8624V50.8619H46.2919V46.2914ZM64.5738 46.2914H69.1443V50.8619H64.5738V46.2914ZM73.7148 46.2914H78.2853V50.8619H73.7148V46.2914ZM78.2853 46.2914H82.8558V50.8619H78.2853V46.2914ZM82.8558 46.2914H87.4262V50.8619H82.8558V46.2914ZM91.9967 46.2914H96.5672V50.8619H91.9967V46.2914ZM105.708 46.2914H110.279V50.8619H105.708V46.2914ZM114.849 46.2914H119.42V50.8619H114.849V46.2914ZM119.42 46.2914H123.99V50.8619H119.42V46.2914ZM128.561 46.2914H133.131V50.8619H128.561V46.2914ZM9.72803 50.8619H14.2985V55.4324H9.72803V50.8619ZM14.2985 50.8619H18.869V55.4324H14.2985V50.8619ZM28.01 50.8619H32.5804V55.4324H28.01V50.8619ZM32.5804 50.8619H37.1509V55.4324H32.5804V50.8619ZM41.7214 50.8619H46.2919V55.4324H41.7214V50.8619ZM55.4329 50.8619H60.0033V55.4324H55.4329V50.8619ZM60.0033 50.8619H64.5738V55.4324H60.0033V50.8619ZM64.5738 50.8619H69.1443V55.4324H64.5738V50.8619ZM73.7148 50.8619H78.2853V55.4324H73.7148V50.8619ZM82.8558 50.8619H87.4262V55.4324H82.8558V50.8619ZM87.4262 50.8619H91.9967V55.4324H87.4262V50.8619ZM96.5672 50.8619H101.138V55.4324H96.5672V50.8619ZM101.138 50.8619H105.708V55.4324H101.138V50.8619ZM119.42 50.8619H123.99V55.4324H119.42V50.8619ZM123.99 50.8619H128.561V55.4324H123.99V50.8619ZM133.131 50.8619H137.702V55.4324H133.131V50.8619ZM137.702 50.8619H142.272V55.4324H137.702V50.8619ZM14.2985 55.4324H18.869V60.0029H14.2985V55.4324ZM32.5804 55.4324H37.1509V60.0029H32.5804V55.4324ZM37.1509 55.4324H41.7214V60.0029H37.1509V55.4324ZM41.7214 55.4324H46.2919V60.0029H41.7214V55.4324ZM46.2919 55.4324H50.8624V60.0029H46.2919V55.4324ZM60.0033 55.4324H64.5738V60.0029H60.0033V55.4324ZM73.7148 55.4324H78.2853V60.0029H73.7148V55.4324ZM78.2853 55.4324H82.8558V60.0029H78.2853V55.4324ZM101.138 55.4324H105.708V60.0029H101.138V55.4324ZM105.708 55.4324H110.279V60.0029H105.708V55.4324ZM119.42 55.4324H123.99V60.0029H119.42V55.4324ZM137.702 55.4324H142.272V60.0029H137.702V55.4324ZM9.72803 60.0029H14.2985V64.5733H9.72803V60.0029ZM23.4395 60.0029H28.01V64.5733H23.4395V60.0029ZM32.5804 60.0029H37.1509V64.5733H32.5804V60.0029ZM41.7214 60.0029H46.2919V64.5733H41.7214V60.0029ZM46.2919 60.0029H50.8624V64.5733H46.2919V60.0029ZM55.4329 60.0029H60.0033V64.5733H55.4329V60.0029ZM64.5738 60.0029H69.1443V64.5733H64.5738V60.0029ZM78.2853 60.0029H82.8558V64.5733H78.2853V60.0029ZM82.8558 60.0029H87.4262V64.5733H82.8558V60.0029ZM87.4262 60.0029H91.9967V64.5733H87.4262V60.0029ZM91.9967 60.0029H96.5672V64.5733H91.9967V60.0029ZM105.708 60.0029H110.279V64.5733H105.708V60.0029ZM114.849 60.0029H119.42V64.5733H114.849V60.0029ZM119.42 60.0029H123.99V64.5733H119.42V60.0029ZM123.99 60.0029H128.561V64.5733H123.99V60.0029ZM133.131 60.0029H137.702V64.5733H133.131V60.0029ZM137.702 60.0029H142.272V64.5733H137.702V60.0029ZM9.72803 64.5733H14.2985V69.1438H9.72803V64.5733ZM28.01 64.5733H32.5804V69.1438H28.01V64.5733ZM32.5804 64.5733H37.1509V69.1438H32.5804V64.5733ZM37.1509 64.5733H41.7214V69.1438H37.1509V64.5733ZM41.7214 64.5733H46.2919V69.1438H41.7214V64.5733ZM50.8624 64.5733H55.4329V69.1438H50.8624V64.5733ZM60.0033 64.5733H64.5738V69.1438H60.0033V64.5733ZM69.1443 64.5733H73.7148V69.1438H69.1443V64.5733ZM73.7148 64.5733H78.2853V69.1438H73.7148V64.5733ZM78.2853 64.5733H82.8558V69.1438H78.2853V64.5733ZM82.8558 64.5733H87.4262V69.1438H82.8558V64.5733ZM87.4262 64.5733H91.9967V69.1438H87.4262V64.5733ZM91.9967 64.5733H96.5672V69.1438H91.9967V64.5733ZM96.5672 64.5733H101.138V69.1438H96.5672V64.5733ZM101.138 64.5733H105.708V69.1438H101.138V64.5733ZM114.849 64.5733H119.42V69.1438H114.849V64.5733ZM137.702 64.5733H142.272V69.1438H137.702V64.5733ZM9.72803 69.1438H14.2985V73.7143H9.72803V69.1438ZM23.4395 69.1438H28.01V73.7143H23.4395V69.1438ZM28.01 69.1438H32.5804V73.7143H28.01V69.1438ZM32.5804 69.1438H37.1509V73.7143H32.5804V69.1438ZM41.7214 69.1438H46.2919V73.7143H41.7214V69.1438ZM87.4262 69.1438H91.9967V73.7143H87.4262V69.1438ZM91.9967 69.1438H96.5672V73.7143H91.9967V69.1438ZM110.279 69.1438H114.849V73.7143H110.279V69.1438ZM119.42 69.1438H123.99V73.7143H119.42V69.1438ZM128.561 69.1438H133.131V73.7143H128.561V69.1438ZM9.72803 73.7143H14.2985V78.2848H9.72803V73.7143ZM14.2985 73.7143H18.869V78.2848H14.2985V73.7143ZM18.869 73.7143H23.4395V78.2848H18.869V73.7143ZM37.1509 73.7143H41.7214V78.2848H37.1509V73.7143ZM55.4329 73.7143H60.0033V78.2848H55.4329V73.7143ZM60.0033 73.7143H64.5738V78.2848H60.0033V73.7143ZM73.7148 73.7143H78.2853V78.2848H73.7148V73.7143ZM91.9967 73.7143H96.5672V78.2848H91.9967V73.7143ZM101.138 73.7143H105.708V78.2848H101.138V73.7143ZM119.42 73.7143H123.99V78.2848H119.42V73.7143ZM137.702 73.7143H142.272V78.2848H137.702V73.7143ZM18.869 78.2848H23.4395V82.8553H18.869V78.2848ZM23.4395 78.2848H28.01V82.8553H23.4395V78.2848ZM32.5804 78.2848H37.1509V82.8553H32.5804V78.2848ZM46.2919 78.2848H50.8624V82.8553H46.2919V78.2848ZM50.8624 78.2848H55.4329V82.8553H50.8624V78.2848ZM55.4329 78.2848H60.0033V82.8553H55.4329V78.2848ZM60.0033 78.2848H64.5738V82.8553H60.0033V78.2848ZM64.5738 78.2848H69.1443V82.8553H64.5738V78.2848ZM82.8558 78.2848H87.4262V82.8553H82.8558V78.2848ZM96.5672 78.2848H101.138V82.8553H96.5672V78.2848ZM105.708 78.2848H110.279V82.8553H105.708V78.2848ZM114.849 78.2848H119.42V82.8553H114.849V78.2848ZM123.99 78.2848H128.561V82.8553H123.99V78.2848ZM9.72803 82.8553H14.2985V87.4258H9.72803V82.8553ZM23.4395 82.8553H28.01V87.4258H23.4395V82.8553ZM28.01 82.8553H32.5804V87.4258H28.01V82.8553ZM37.1509 82.8553H41.7214V87.4258H37.1509V82.8553ZM41.7214 82.8553H46.2919V87.4258H41.7214V82.8553ZM60.0033 82.8553H64.5738V87.4258H60.0033V82.8553ZM73.7148 82.8553H78.2853V87.4258H73.7148V82.8553ZM82.8558 82.8553H87.4262V87.4258H82.8558V82.8553ZM96.5672 82.8553H101.138V87.4258H96.5672V82.8553ZM101.138 82.8553H105.708V87.4258H101.138V82.8553ZM105.708 82.8553H110.279V87.4258H105.708V82.8553ZM110.279 82.8553H114.849V87.4258H110.279V82.8553ZM119.42 82.8553H123.99V87.4258H119.42V82.8553ZM9.72803 87.4258H14.2985V91.9962H9.72803V87.4258ZM14.2985 87.4258H18.869V91.9962H14.2985V87.4258ZM23.4395 87.4258H28.01V91.9962H23.4395V87.4258ZM55.4329 87.4258H60.0033V91.9962H55.4329V87.4258ZM69.1443 87.4258H73.7148V91.9962H69.1443V87.4258ZM87.4262 87.4258H91.9967V91.9962H87.4262V87.4258ZM91.9967 87.4258H96.5672V91.9962H91.9967V87.4258ZM96.5672 87.4258H101.138V91.9962H96.5672V87.4258ZM114.849 87.4258H119.42V91.9962H114.849V87.4258ZM119.42 87.4258H123.99V91.9962H119.42V87.4258ZM123.99 87.4258H128.561V91.9962H123.99V87.4258ZM128.561 87.4258H133.131V91.9962H128.561V87.4258ZM137.702 87.4258H142.272V91.9962H137.702V87.4258ZM37.1509 91.9962H41.7214V96.5667H37.1509V91.9962ZM50.8624 91.9962H55.4329V96.5667H50.8624V91.9962ZM55.4329 91.9962H60.0033V96.5667H55.4329V91.9962ZM60.0033 91.9962H64.5738V96.5667H60.0033V91.9962ZM69.1443 91.9962H73.7148V96.5667H69.1443V91.9962ZM73.7148 91.9962H78.2853V96.5667H73.7148V91.9962ZM78.2853 91.9962H82.8558V96.5667H78.2853V91.9962ZM91.9967 91.9962H96.5672V96.5667H91.9967V91.9962ZM96.5672 91.9962H101.138V96.5667H96.5672V91.9962ZM119.42 91.9962H123.99V96.5667H119.42V91.9962ZM123.99 91.9962H128.561V96.5667H123.99V91.9962ZM128.561 91.9962H133.131V96.5667H128.561V91.9962ZM137.702 91.9962H142.272V96.5667H137.702V91.9962ZM18.869 96.5667H23.4395V101.137H18.869V96.5667ZM28.01 96.5667H32.5804V101.137H28.01V96.5667ZM32.5804 96.5667H37.1509V101.137H32.5804V96.5667ZM46.2919 96.5667H50.8624V101.137H46.2919V96.5667ZM73.7148 96.5667H78.2853V101.137H73.7148V96.5667ZM78.2853 96.5667H82.8558V101.137H78.2853V96.5667ZM82.8558 96.5667H87.4262V101.137H82.8558V96.5667ZM87.4262 96.5667H91.9967V101.137H87.4262V96.5667ZM96.5672 96.5667H101.138V101.137H96.5672V96.5667ZM101.138 96.5667H105.708V101.137H101.138V96.5667ZM133.131 96.5667H137.702V101.137H133.131V96.5667ZM9.72803 101.137H14.2985V105.708H9.72803V101.137ZM14.2985 101.137H18.869V105.708H14.2985V101.137ZM18.869 101.137H23.4395V105.708H18.869V101.137ZM23.4395 101.137H28.01V105.708H23.4395V101.137ZM28.01 101.137H32.5804V105.708H28.01V101.137ZM32.5804 101.137H37.1509V105.708H32.5804V101.137ZM37.1509 101.137H41.7214V105.708H37.1509V101.137ZM41.7214 101.137H46.2919V105.708H41.7214V101.137ZM46.2919 101.137H50.8624V105.708H46.2919V101.137ZM50.8624 101.137H55.4329V105.708H50.8624V101.137ZM73.7148 101.137H78.2853V105.708H73.7148V101.137ZM87.4262 101.137H91.9967V105.708H87.4262V101.137ZM101.138 101.137H105.708V105.708H101.138V101.137ZM105.708 101.137H110.279V105.708H105.708V101.137ZM110.279 101.137H114.849V105.708H110.279V101.137ZM114.849 101.137H119.42V105.708H114.849V101.137ZM119.42 101.137H123.99V105.708H119.42V101.137ZM133.131 101.137H137.702V105.708H133.131V101.137ZM46.2919 105.708H50.8624V110.278H46.2919V105.708ZM50.8624 105.708H55.4329V110.278H50.8624V105.708ZM55.4329 105.708H60.0033V110.278H55.4329V105.708ZM64.5738 105.708H69.1443V110.278H64.5738V105.708ZM69.1443 105.708H73.7148V110.278H69.1443V105.708ZM78.2853 105.708H82.8558V110.278H78.2853V105.708ZM96.5672 105.708H101.138V110.278H96.5672V105.708ZM101.138 105.708H105.708V110.278H101.138V105.708ZM119.42 105.708H123.99V110.278H119.42V105.708ZM128.561 105.708H133.131V110.278H128.561V105.708ZM133.131 105.708H137.702V110.278H133.131V105.708ZM137.702 105.708H142.272V110.278H137.702V105.708ZM9.72803 110.278H14.2985V114.849H9.72803V110.278ZM14.2985 110.278H18.869V114.849H14.2985V110.278ZM18.869 110.278H23.4395V114.849H18.869V110.278ZM23.4395 110.278H28.01V114.849H23.4395V110.278ZM28.01 110.278H32.5804V114.849H28.01V110.278ZM32.5804 110.278H37.1509V114.849H32.5804V110.278ZM37.1509 110.278H41.7214V114.849H37.1509V110.278ZM55.4329 110.278H60.0033V114.849H55.4329V110.278ZM78.2853 110.278H82.8558V114.849H78.2853V110.278ZM87.4262 110.278H91.9967V114.849H87.4262V110.278ZM96.5672 110.278H101.138V114.849H96.5672V110.278ZM101.138 110.278H105.708V114.849H101.138V110.278ZM110.279 110.278H114.849V114.849H110.279V110.278ZM119.42 110.278H123.99V114.849H119.42V110.278ZM133.131 110.278H137.702V114.849H133.131V110.278ZM137.702 110.278H142.272V114.849H137.702V110.278ZM9.72803 114.849H14.2985V119.419H9.72803V114.849ZM37.1509 114.849H41.7214V119.419H37.1509V114.849ZM55.4329 114.849H60.0033V119.419H55.4329V114.849ZM60.0033 114.849H64.5738V119.419H60.0033V114.849ZM64.5738 114.849H69.1443V119.419H64.5738V114.849ZM78.2853 114.849H82.8558V119.419H78.2853V114.849ZM87.4262 114.849H91.9967V119.419H87.4262V114.849ZM91.9967 114.849H96.5672V119.419H91.9967V114.849ZM96.5672 114.849H101.138V119.419H96.5672V114.849ZM101.138 114.849H105.708V119.419H101.138V114.849ZM119.42 114.849H123.99V119.419H119.42V114.849ZM123.99 114.849H128.561V119.419H123.99V114.849ZM9.72803 119.419H14.2985V123.99H9.72803V119.419ZM18.869 119.419H23.4395V123.99H18.869V119.419ZM23.4395 119.419H28.01V123.99H23.4395V119.419ZM28.01 119.419H32.5804V123.99H28.01V119.419ZM37.1509 119.419H41.7214V123.99H37.1509V119.419ZM46.2919 119.419H50.8624V123.99H46.2919V119.419ZM50.8624 119.419H55.4329V123.99H50.8624V119.419ZM55.4329 119.419H60.0033V123.99H55.4329V119.419ZM60.0033 119.419H64.5738V123.99H60.0033V119.419ZM91.9967 119.419H96.5672V123.99H91.9967V119.419ZM96.5672 119.419H101.138V123.99H96.5672V119.419ZM101.138 119.419H105.708V123.99H101.138V119.419ZM105.708 119.419H110.279V123.99H105.708V119.419ZM110.279 119.419H114.849V123.99H110.279V119.419ZM114.849 119.419H119.42V123.99H114.849V119.419ZM119.42 119.419H123.99V123.99H119.42V119.419ZM133.131 119.419H137.702V123.99H133.131V119.419ZM137.702 119.419H142.272V123.99H137.702V119.419ZM9.72803 123.99H14.2985V128.56H9.72803V123.99ZM18.869 123.99H23.4395V128.56H18.869V123.99ZM23.4395 123.99H28.01V128.56H23.4395V123.99ZM28.01 123.99H32.5804V128.56H28.01V123.99ZM37.1509 123.99H41.7214V128.56H37.1509V123.99ZM55.4329 123.99H60.0033V128.56H55.4329V123.99ZM73.7148 123.99H78.2853V128.56H73.7148V123.99ZM82.8558 123.99H87.4262V128.56H82.8558V123.99ZM114.849 123.99H119.42V128.56H114.849V123.99ZM123.99 123.99H128.561V128.56H123.99V123.99ZM133.131 123.99H137.702V128.56H133.131V123.99ZM9.72803 128.56H14.2985V133.131H9.72803V128.56ZM18.869 128.56H23.4395V133.131H18.869V128.56ZM23.4395 128.56H28.01V133.131H23.4395V128.56ZM28.01 128.56H32.5804V133.131H28.01V128.56ZM37.1509 128.56H41.7214V133.131H37.1509V128.56ZM55.4329 128.56H60.0033V133.131H55.4329V128.56ZM60.0033 128.56H64.5738V133.131H60.0033V128.56ZM64.5738 128.56H69.1443V133.131H64.5738V128.56ZM82.8558 128.56H87.4262V133.131H82.8558V128.56ZM96.5672 128.56H101.138V133.131H96.5672V128.56ZM101.138 128.56H105.708V133.131H101.138V128.56ZM105.708 128.56H110.279V133.131H105.708V128.56ZM123.99 128.56H128.561V133.131H123.99V128.56ZM133.131 128.56H137.702V133.131H133.131V128.56ZM137.702 128.56H142.272V133.131H137.702V128.56ZM9.72803 133.131H14.2985V137.701H9.72803V133.131ZM37.1509 133.131H41.7214V137.701H37.1509V133.131ZM46.2919 133.131H50.8624V137.701H46.2919V133.131ZM50.8624 133.131H55.4329V137.701H50.8624V133.131ZM64.5738 133.131H69.1443V137.701H64.5738V133.131ZM69.1443 133.131H73.7148V137.701H69.1443V133.131ZM87.4262 133.131H91.9967V137.701H87.4262V133.131ZM96.5672 133.131H101.138V137.701H96.5672V133.131ZM105.708 133.131H110.279V137.701H105.708V133.131ZM110.279 133.131H114.849V137.701H110.279V133.131ZM114.849 133.131H119.42V137.701H114.849V133.131ZM123.99 133.131H128.561V137.701H123.99V133.131ZM133.131 133.131H137.702V137.701H133.131V133.131ZM137.702 133.131H142.272V137.701H137.702V133.131ZM9.72803 137.701H14.2985V142.272H9.72803V137.701ZM14.2985 137.701H18.869V142.272H14.2985V137.701ZM18.869 137.701H23.4395V142.272H18.869V137.701ZM23.4395 137.701H28.01V142.272H23.4395V137.701ZM28.01 137.701H32.5804V142.272H28.01V137.701ZM32.5804 137.701H37.1509V142.272H32.5804V137.701ZM37.1509 137.701H41.7214V142.272H37.1509V137.701ZM60.0033 137.701H64.5738V142.272H60.0033V137.701ZM69.1443 137.701H73.7148V142.272H69.1443V137.701ZM78.2853 137.701H82.8558V142.272H78.2853V137.701ZM82.8558 137.701H87.4262V142.272H82.8558V137.701ZM87.4262 137.701H91.9967V142.272H87.4262V137.701ZM96.5672 137.701H101.138V142.272H96.5672V137.701ZM101.138 137.701H105.708V142.272H101.138V137.701ZM105.708 137.701H110.279V142.272H105.708V137.701ZM119.42 137.701H123.99V142.272H119.42V137.701ZM123.99 137.701H128.561V142.272H123.99V137.701ZM133.131 137.701H137.702V142.272H133.131V137.701Z" fill="black"/>
</svg>
