<svg width="306" height="126" viewBox="0 0 306 126" fill="none" xmlns="http://www.w3.org/2000/svg">
<path d="M24.8732 61.5098C24.9562 60.8184 25.2051 60.2689 25.6198 59.8614C26.0576 59.4218 26.5668 59.154 27.1474 59.0578C27.8109 58.948 28.4284 59.0716 28.9998 59.4288C29.5942 59.7539 29.9467 60.2462 30.0573 60.9056C30.1079 61.2078 30.1033 61.5191 30.0434 61.8396C29.6655 64.1611 28.9281 66.2033 27.8313 67.9662C26.7299 69.7015 25.5364 71.0569 24.2507 72.0321C22.9651 73.0074 21.4121 73.9139 19.5919 74.7518C19.4629 75.5073 19.2601 76.6704 18.9836 78.2409C18.7347 79.8069 18.5319 80.97 18.3752 81.7301C17.9189 84.2622 16.8935 86.2815 15.2991 87.7879C13.7323 89.2897 11.8845 90.2169 9.75556 90.5694C7.43311 90.9539 5.34569 90.6218 3.49331 89.5732C1.64093 88.5246 0.530463 86.9013 0.161906 84.7034C-0.340254 81.7088 0.325694 79.3254 2.15975 77.5535C3.9892 75.754 7.60655 73.8562 13.0118 71.86C13.1271 70.8526 12.8552 69.8247 12.1963 68.7761C10.7678 69.4079 9.41765 69.8291 8.14583 70.0397C6.15516 70.3693 4.65526 70.2364 3.64613 69.6411C2.66465 69.0413 2.08637 68.2193 1.91131 67.1753C1.72703 66.0764 2.04041 65.0645 2.85146 64.1395C3.68554 63.1826 5.01498 62.553 6.83976 62.2509C8.5816 61.9625 10.2843 62.0335 11.9477 62.464C13.0214 61.4109 13.6597 60.1334 13.8625 58.6315L15.0171 50.7741C15.1462 50.0186 15.1646 49.3661 15.0725 48.8166C14.902 47.8001 14.432 47.1155 13.6625 46.7629C12.8884 46.3829 12.1695 46.2477 11.506 46.3576C10.6765 46.495 9.98301 46.8498 9.42541 47.4221C8.86782 47.9945 8.54985 48.6401 8.47148 49.359C8.65576 50.6274 8.50135 51.6553 8.00826 52.4429C7.51057 53.203 6.847 53.6517 6.01755 53.789C5.1881 53.9263 4.40475 53.7454 3.66749 53.2463C2.95787 52.7426 2.52244 52.01 2.3612 51.0484C1.88208 48.1911 2.49734 45.7597 4.20698 43.7542C5.93967 41.7167 8.21608 40.4644 11.0362 39.9975C13.7457 39.5488 16.1718 39.9519 18.3145 41.2066C20.4572 42.4613 21.7381 44.3387 22.1574 46.8388C22.3094 47.7454 22.2978 48.8627 22.1227 50.1906L21.0579 57.8213C20.6754 60.6236 19.4334 63.1305 17.3321 65.342C18.461 66.3128 19.2397 67.4828 19.6682 68.8519C22.5898 66.9563 24.3248 64.5089 24.8732 61.5098ZM11.9679 77.8354C8.79291 79.2365 7.01646 80.9283 6.63853 82.911C6.57861 83.2315 6.57399 83.5429 6.62467 83.8451C6.7122 84.3671 6.96563 84.7769 7.38494 85.0746C7.80426 85.3722 8.27658 85.4775 8.8019 85.3905C9.35486 85.299 9.8318 85.0082 10.2327 84.5183C10.6659 84.0513 10.9493 83.4538 11.083 82.7257L11.9679 77.8354Z" fill="url(#paint0_linear_120_30029)"/>
<path d="M47.3036 57.0334C47.7921 56.5573 48.3543 56.2665 48.9902 56.1612C49.6261 56.0559 50.1975 56.159 50.7044 56.4704C51.2112 56.7818 51.52 57.2671 51.6305 57.9265C51.6858 58.2562 51.5291 59.4398 51.1604 61.4774C50.7917 63.1762 50.2617 64.6758 49.5704 65.9762C48.8792 67.2766 48.0866 68.3114 47.1926 69.0806C46.3216 69.8178 45.453 70.3993 44.5867 70.8251C43.7158 71.2234 42.8103 71.5004 41.8702 71.656C40.9302 71.8117 39.8934 71.8139 38.7598 71.6628C37.6263 71.5116 36.7001 71.072 35.9813 70.344C34.5435 72.1068 32.8431 73.1507 30.8801 73.4757C29.0553 73.7779 27.4195 73.4275 25.9726 72.4247C24.5534 71.4173 23.6986 70.0482 23.4084 68.3173C23.2978 67.6579 23.3117 66.8933 23.4499 66.0233L25.4894 54.2921C25.7614 52.6941 26.4664 51.3914 27.6046 50.3841C28.7705 49.3722 30.0861 48.745 31.5515 48.5023C33.3763 48.2002 34.9752 48.3307 36.3484 48.894C36.8369 47.7401 37.7585 47.051 39.1133 46.8267C39.9427 46.6894 40.6892 46.8199 41.3528 47.2183C42.0439 47.6121 42.4609 48.2349 42.6038 49.0866C42.6729 49.4987 42.6659 49.9657 42.583 50.4877L40.1771 64.609C40.1217 65.1264 40.1194 65.5362 40.1701 65.8384C40.2853 66.5253 40.7161 66.8069 41.4626 66.6833C42.5409 66.5048 43.5432 65.7882 44.4694 64.5336C45.4187 63.247 46.0708 61.3742 46.4257 58.9154C46.5502 58.1324 46.8428 57.5051 47.3036 57.0334ZM35.2352 58.0152C35.3919 56.9162 35.4219 56.0783 35.3252 55.5014C35.2146 54.842 34.9474 54.3497 34.5234 54.0246C34.1226 53.6674 33.7147 53.5232 33.3 53.5919C32.1388 53.7841 31.4268 54.8762 31.1641 56.868L29.8989 65.5908C29.8159 66.1128 29.8113 66.5936 29.885 67.0332C30.0554 68.0497 30.5969 68.4824 31.5093 68.3314C32.0899 68.2352 32.6428 67.8895 33.1682 67.2943C33.7166 66.667 34.0852 65.7306 34.2742 64.4852L35.2352 58.0152Z" fill="url(#paint1_linear_120_30029)"/>
<path d="M69.3555 52.1962C70.0744 52.0772 70.7587 52.1757 71.4084 52.4917C72.0581 52.8076 72.4382 53.2953 72.5488 53.9547C72.581 54.147 72.5764 54.3736 72.5349 54.6346C72.1985 57.034 71.1708 59.0395 69.452 60.6512C67.7331 62.263 65.7263 63.2588 63.4315 63.6388C62.8785 63.7303 62.3463 63.7761 61.8348 63.7761C61.2633 65.4519 60.3048 66.7683 58.9593 67.7253C57.6137 68.6822 56.0976 69.3003 54.4111 69.5796C52.2269 69.9412 50.2593 69.6458 48.5083 68.6933C46.7803 67.7088 45.7366 66.1451 45.3773 64.0021C45.216 63.0405 45.2322 61.9507 45.4258 60.7328C45.6424 59.3133 45.9858 57.3787 46.4559 54.929C46.9214 52.4518 47.2533 50.618 47.4514 49.4275C48.3917 44.0198 51.4308 40.3682 56.5688 38.4727C57.3983 38.166 58.025 37.921 58.4489 37.7379C58.8682 37.5273 59.3337 37.2526 59.8452 36.9137C60.3521 36.5474 60.7368 36.1308 60.9995 35.6637C61.2622 35.1967 61.4534 34.6426 61.5733 34.0016C61.8406 32.3761 62.6793 31.4466 64.0894 31.2131C64.7253 31.1078 65.299 31.2246 65.8104 31.5635C66.3449 31.8703 66.6698 32.3671 66.785 33.054C66.8403 33.3836 66.8379 33.7088 66.778 34.0293C66.4554 36.0028 65.6535 37.745 64.3724 39.256C63.0868 40.7395 61.4647 41.9117 59.5063 42.7725C57.0179 43.8621 55.4258 44.7046 54.73 45.2998C53.9097 46.0004 53.4212 46.8154 53.2645 47.7449C54.2645 47.0993 55.1101 46.7193 55.8013 46.6049C57.6813 46.2936 59.3771 46.6622 60.8885 47.7109C62.3952 48.732 63.3145 50.2317 63.6462 52.2098C63.8305 53.3087 63.8028 54.4145 63.5631 55.5272L62.9409 58.6798L63.1483 58.6454C64.2542 58.4623 65.1781 57.9564 65.9201 57.1276C66.6896 56.2943 67.1942 55.2366 67.4339 53.9545C67.5814 52.97 68.2219 52.3839 69.3555 52.1962ZM56.1255 62.0107C55.0703 61.1406 54.4414 60.1012 54.2387 58.8924C54.0636 57.8484 54.2618 56.912 54.8332 56.0832C55.4277 55.2224 56.2364 54.7073 57.2594 54.5379L57.5082 54.4967L57.5635 54.064C57.6096 53.6611 57.612 53.336 57.5705 53.0887C57.483 52.5667 57.248 52.1821 56.8655 51.9348C56.4785 51.66 56.0084 51.5684 55.4555 51.66C54.8472 51.7607 54.2781 52.0949 53.7482 52.6627C53.2182 53.2305 52.8104 53.9333 52.5247 54.7713C51.9716 58.0818 51.5614 60.4651 51.2941 61.9212C51.2203 62.3287 51.2203 62.7523 51.294 63.1919C51.3908 63.7688 51.6465 64.1924 52.0612 64.4625C52.4713 64.7052 52.9805 64.7762 53.5887 64.6755C55.0264 64.4375 55.8628 63.6637 56.0979 62.3541L56.1255 62.0107Z" fill="url(#paint2_linear_120_30029)"/>
<path d="M83.9061 55.8437C84.0213 55.8529 84.2172 55.8346 84.4936 55.7888C85.6825 55.592 86.6687 55.0334 87.452 54.113C88.2585 53.1607 88.7862 51.9862 89.035 50.5896C89.2332 49.0603 90.0236 48.1811 91.406 47.9523C92.0419 47.847 92.6179 47.9775 93.1339 48.3438C93.6731 48.6781 94.0048 49.2161 94.1292 49.9579C94.1845 50.2876 94.1845 50.7112 94.1292 51.2286C93.7881 53.6004 92.8157 55.6815 91.2121 57.4718C89.6315 59.2301 87.6523 60.306 85.2745 60.6997C84.4174 60.8417 83.5696 60.8691 82.7309 60.7821C81.6018 63.708 79.1849 65.4776 75.48 66.0911C73.2681 66.4573 71.2821 66.1367 69.5219 65.1293C67.7617 64.1218 66.7065 62.5741 66.3564 60.4861C66.1905 59.4971 66.2044 58.4783 66.3979 57.4297L68.0019 48.439C68.3383 46.5479 69.2485 44.9431 70.7323 43.6244C72.2161 42.3057 73.9534 41.4816 75.944 41.152C78.2112 40.7766 80.2157 41.1224 81.9575 42.1893C83.6946 43.2288 84.736 44.7788 85.0815 46.8393C85.2105 47.6086 85.1598 48.7465 84.9293 50.2529C84.7265 51.7548 84.4776 52.8125 84.1827 53.4261C83.9753 53.884 83.7495 54.232 83.5053 54.4701C83.5514 54.5754 83.5836 54.683 83.602 54.7929C83.6481 54.8982 83.6781 54.9921 83.6919 55.0745C83.7334 55.1523 83.7633 55.2462 83.7817 55.3561C83.8232 55.4339 83.8485 55.5003 83.8578 55.5553C83.867 55.6102 83.8762 55.6652 83.8854 55.7201C83.8946 55.7751 83.8992 55.8025 83.8992 55.8025L83.9061 55.8437ZM78.985 50.1359C79.1647 49.0049 79.2016 48.1235 79.0957 47.4916C79.0128 46.9971 78.7478 46.6033 78.3008 46.3102C77.8539 46.0171 77.3124 45.9233 76.6765 46.0285C76.013 46.1384 75.3955 46.4383 74.8241 46.9282C74.2803 47.4136 73.9393 48.0065 73.801 48.7071L72.2593 57.5604C72.1118 58.206 72.0957 58.8723 72.2109 59.5591C72.432 60.8778 73.2199 61.4251 74.5747 61.2007C76.0677 60.9535 76.9571 60.0721 77.2428 58.5565C76.1093 57.8971 75.4412 57.0477 75.2385 56.0083C75.0311 54.7719 75.2892 53.6845 76.0127 52.7458C76.7316 51.7797 77.6832 51.2692 78.8674 51.2143C78.8675 51.0448 78.9066 50.6854 78.985 50.1359Z" fill="url(#paint3_linear_120_30029)"/>
<path d="M123.905 43.8842C124.568 43.7743 125.167 43.8728 125.702 44.1796C126.259 44.4544 126.591 44.9077 126.697 45.5396C126.729 45.7319 126.722 46.0295 126.676 46.4325C125.994 50.4986 124.773 53.5526 123.013 55.5948C121.28 57.6323 119.266 58.8411 116.971 59.2211C115.064 59.5369 113.373 59.2804 111.898 58.4516C110.424 57.6228 109.534 56.3017 109.23 54.4885C109.083 53.6093 109.094 52.6615 109.265 51.6449L110.986 42.5925C111.042 42.2445 111.046 41.9331 111 41.6584C110.936 41.2737 110.761 40.9921 110.475 40.8135C110.185 40.6075 109.846 40.5365 109.459 40.6006C108.768 40.715 108.113 41.134 107.496 41.8574C106.906 42.5763 106.516 43.4738 106.328 44.5498L103.804 58.7329C103.643 59.635 103.281 60.3584 102.719 60.9033C102.157 61.4482 101.502 61.7824 100.756 61.906C100.009 62.0296 99.3365 61.9151 98.7375 61.5625C98.1661 61.2053 97.8182 60.6558 97.6938 59.914C97.6201 59.4745 97.6455 58.9479 97.7699 58.3343L100.376 44.1375C100.445 43.8719 100.457 43.6017 100.411 43.327C100.351 42.9698 100.164 42.7043 99.851 42.5302C99.5653 42.3517 99.2151 42.2967 98.8004 42.3654C97.418 42.5943 96.4249 43.7046 95.8212 45.6964L93.2494 60.6076C93.1065 61.4501 92.754 62.1438 92.1917 62.6887C91.6526 63.2015 91.0098 63.5197 90.2633 63.6433C89.4891 63.7715 88.8048 63.673 88.2104 63.3479C87.5837 62.9999 87.2082 62.455 87.0838 61.7132C87.0285 61.3835 87.0285 61.0446 87.0839 60.6966L90.5337 40.5999C90.6858 39.9817 91.0268 39.4735 91.5567 39.0751C92.0821 38.6493 92.6765 38.3815 93.3401 38.2716C94.3907 38.0976 95.204 38.2877 95.78 38.8418C96.7247 38.0359 97.8191 37.53 99.0633 37.324C101.054 36.9944 102.708 37.3699 104.026 38.4506C105.39 36.9258 107.137 35.9872 109.265 35.6347C111.201 35.3143 112.92 35.5662 114.422 36.3905C115.924 37.2147 116.818 38.4785 117.104 40.1819C117.214 40.8413 117.205 41.6334 117.076 42.5584L115.161 52.7441C115.124 52.8632 115.128 53.0601 115.175 53.3348C115.299 54.0766 115.776 54.3788 116.605 54.2415C117.656 54.0675 118.612 53.3303 119.474 52.03C120.359 50.6975 121.031 48.779 121.492 46.2743C121.58 45.6104 121.845 45.0724 122.287 44.6603C122.757 44.2436 123.297 43.9849 123.905 43.8842Z" fill="url(#paint4_linear_120_30029)"/>
<path d="M144.059 41.0131C144.547 40.5369 145.11 40.2461 145.745 40.1409C146.381 40.0356 146.953 40.1386 147.46 40.45C147.967 40.7614 148.275 41.2468 148.386 41.9061C148.441 42.2358 148.284 43.4195 147.916 45.4571C147.547 47.1558 147.017 48.6554 146.326 49.9558C145.634 51.2562 144.842 52.291 143.948 53.0602C143.077 53.7974 142.208 54.3789 141.342 54.8047C140.471 55.203 139.566 55.48 138.626 55.6357C137.685 55.7913 136.649 55.7936 135.515 55.6424C134.382 55.4913 133.455 55.0517 132.737 54.3236C131.299 56.0864 129.598 57.1303 127.635 57.4554C125.811 57.7575 124.175 57.4072 122.728 56.4043C121.309 55.3969 120.454 54.0278 120.164 52.2969C120.053 51.6376 120.067 50.8729 120.205 50.0029L122.245 38.2718C122.517 36.6737 123.222 35.3711 124.36 34.3637C125.526 33.3518 126.841 32.7246 128.307 32.4819C130.132 32.1798 131.731 32.3104 133.104 32.8736C133.592 31.7198 134.514 31.0307 135.869 30.8063C136.698 30.669 137.444 30.7995 138.108 31.1979C138.799 31.5917 139.216 32.2145 139.359 33.0662C139.428 33.4783 139.421 33.9453 139.338 34.4673L136.932 48.5886C136.877 49.1061 136.875 49.5159 136.925 49.8181C137.041 50.5049 137.471 50.7865 138.218 50.6629C139.296 50.4844 140.298 49.7678 141.225 48.5132C142.174 47.2266 142.826 45.3538 143.181 42.895C143.305 42.112 143.598 41.4847 144.059 41.0131ZM131.99 41.9948C132.147 40.8959 132.177 40.0579 132.08 39.481C131.97 38.8216 131.703 38.3294 131.279 38.0042C130.878 37.6471 130.47 37.5028 130.055 37.5715C128.894 37.7638 128.182 38.8558 127.919 40.8476L126.654 49.5704C126.571 50.0924 126.567 50.5732 126.64 51.0128C126.811 52.0293 127.352 52.462 128.265 52.311C128.845 52.2148 129.398 51.8692 129.923 51.2739C130.472 50.6466 130.841 49.7102 131.029 48.4648L131.99 41.9948Z" fill="url(#paint5_linear_120_30029)"/>
<path d="M175.801 40.6281C175.917 40.6372 176.112 40.6189 176.389 40.5732C177.578 40.3763 178.564 39.8177 179.347 38.8974C180.154 37.945 180.681 36.7705 180.93 35.374C181.128 33.8446 181.919 32.9655 183.301 32.7366C183.937 32.6313 184.513 32.7618 185.029 33.1281C185.568 33.4624 185.9 34.0005 186.024 34.7422C186.08 35.0719 186.08 35.4955 186.024 36.0129C185.683 38.3848 184.711 40.4659 183.107 42.2562C181.527 44.0144 179.548 45.0904 177.17 45.4841C176.313 45.626 175.465 45.6534 174.626 45.5664C173.497 48.4923 171.08 50.262 167.375 50.8754C165.163 51.2416 163.177 50.921 161.417 49.9136C159.657 48.9062 158.602 47.3585 158.252 45.2705C158.086 44.2814 158.1 43.2626 158.293 42.214L159.897 33.2234C160.234 31.3323 161.144 29.7274 162.628 28.4087C164.111 27.09 165.849 26.2659 167.839 25.9363C170.106 25.5609 172.111 25.9067 173.853 26.9737C175.59 28.0131 176.631 29.5631 176.977 31.6237C177.106 32.3929 177.055 33.5308 176.825 35.0372C176.622 36.5391 176.373 37.5969 176.078 38.2104C175.871 38.6683 175.645 39.0163 175.401 39.2544C175.447 39.3597 175.479 39.4673 175.497 39.5772C175.543 39.6825 175.573 39.7764 175.587 39.8588C175.629 39.9367 175.659 40.0305 175.677 40.1404C175.718 40.2183 175.744 40.2847 175.753 40.3396C175.762 40.3946 175.771 40.4495 175.781 40.5044C175.79 40.5594 175.794 40.5869 175.794 40.5869L175.801 40.6281ZM170.88 34.9203C171.06 33.7893 171.097 32.9078 170.991 32.2759C170.908 31.7814 170.643 31.3876 170.196 31.0945C169.749 30.8015 169.208 30.7076 168.572 30.8129C167.908 30.9228 167.291 31.2226 166.719 31.7126C166.176 32.1979 165.835 32.7909 165.696 33.4914L164.155 42.3447C164.007 42.9904 163.991 43.6566 164.106 44.3434C164.327 45.6622 165.115 46.2094 166.47 45.9851C167.963 45.7379 168.852 44.8565 169.138 43.3408C168.005 42.6814 167.336 41.832 167.134 40.7926C166.926 39.5563 167.184 38.4688 167.908 37.5301C168.627 36.564 169.578 36.0535 170.763 35.9986C170.763 35.8292 170.802 35.4697 170.88 34.9203Z" fill="url(#paint6_linear_120_30029)"/>
<path d="M215.226 30.373C215.425 29.1825 216.16 28.482 217.431 28.2714C218.123 28.1569 218.752 28.2645 219.318 28.5943C219.908 28.8919 220.256 29.3567 220.362 29.9886C220.413 30.2908 220.403 30.5747 220.334 30.8403C219.666 34.6499 218.134 37.7131 215.737 40.03C213.364 42.3148 210.56 43.725 207.325 44.2606C204.284 44.7642 201.683 44.4184 199.522 43.2232C197.384 41.9959 196.114 40.1872 195.713 37.797C195.557 36.8629 195.561 35.8739 195.727 34.8299L196.93 27.5151C197.304 25.3355 198.163 23.5979 199.509 22.3021C200.854 21.0063 202.412 20.2119 204.181 19.9189C206.061 19.6076 207.757 19.8916 209.269 20.7708C210.78 21.65 211.692 23.0237 212.006 24.8919C212.171 25.881 212.148 26.9295 211.936 28.0376C211.54 29.9104 210.609 30.9681 209.144 31.2107C208.397 31.3343 207.692 31.1969 207.029 30.7985C206.393 30.3956 206.015 29.8369 205.895 29.1226C205.831 28.738 205.872 28.3076 206.02 27.8314C206.222 27.1766 206.289 26.6431 206.22 26.231C206.087 25.4343 205.605 25.1046 204.776 25.2419C204.444 25.2969 204.124 25.5052 203.815 25.8669C203.506 26.2286 203.294 26.6591 203.179 27.1582L201.845 34.7065C201.766 35.2559 201.766 35.7642 201.844 36.2312C202.024 37.3027 202.602 38.1247 203.579 38.6971C204.556 39.2695 205.75 39.4389 207.16 39.2055C208.929 38.9125 210.572 38.0334 212.088 36.5682C213.6 35.0755 214.646 33.0104 215.226 30.373Z" fill="url(#paint7_linear_120_30029)"/>
<path d="M234.792 27.7688C234.856 27.1369 235.123 26.6126 235.593 26.196C236.063 25.7793 236.616 25.5183 237.252 25.413C237.916 25.3032 238.513 25.3879 239.043 25.6672C239.572 25.9466 239.888 26.3884 239.989 26.9929C240.035 27.2676 240.029 27.5652 239.969 27.8858C239.531 30.5278 238.593 32.8149 237.155 34.7472C235.745 36.6748 234.155 38.124 232.386 39.0947C230.644 40.0608 228.75 40.7132 226.704 41.052C223.607 41.5647 220.93 41.2738 218.672 40.1794C216.41 39.0574 215.076 37.2876 214.67 34.87C214.523 33.9908 214.539 32.9857 214.719 31.8547L215.984 24.4026C216.339 22.2826 217.228 20.554 218.652 19.2171C220.072 17.8526 221.749 17.0101 223.684 16.6897C226.007 16.3051 227.997 16.6532 229.656 17.7339C231.315 18.8146 232.31 20.344 232.642 22.3221C232.757 23.0089 232.773 23.7828 232.69 24.6436C232.446 26.5759 231.656 28.2174 230.319 29.5681C229.011 30.9143 227.402 31.7453 225.495 32.0612C223.919 32.3221 222.398 32.1504 220.933 31.5459L220.732 32.3838C220.649 32.7364 220.645 33.1325 220.718 33.5721C220.88 34.5336 221.456 35.2571 222.446 35.7425C223.465 36.2234 224.72 36.3402 226.213 36.093C228.176 35.7679 229.976 34.8911 231.612 33.4626C233.248 32.034 234.308 30.1361 234.792 27.7688ZM224.375 21.5731C223.878 21.6555 223.424 21.9142 223.014 22.3492C222.631 22.7796 222.382 23.3291 222.267 23.9976L221.811 26.6144C222.447 26.848 223.193 26.8938 224.05 26.7519C225.599 26.4955 226.463 25.7171 226.642 24.4167C226.702 24.0962 226.702 23.7574 226.642 23.4002C226.541 22.7958 226.276 22.3173 225.848 21.9647C225.447 21.6075 224.956 21.477 224.375 21.5731Z" fill="url(#paint8_linear_120_30029)"/>
<path d="M257.642 21.0206C258.36 20.9015 259.045 21 259.694 21.316C260.344 21.6319 260.724 22.1196 260.835 22.779C260.867 22.9713 260.862 23.198 260.821 23.459C260.484 25.8583 259.457 27.8638 257.738 29.4755C256.019 31.0873 254.012 32.0831 251.718 32.4631C251.165 32.5546 250.632 32.6004 250.121 32.6004C249.549 34.2762 248.591 35.5926 247.245 36.5496C245.9 37.5065 244.384 38.1246 242.697 38.4039C240.513 38.7655 238.545 38.4701 236.794 37.5176C235.066 36.5331 234.023 34.9694 233.663 32.8264C233.502 31.8648 233.518 30.775 233.712 29.5571C233.928 28.1376 234.272 26.203 234.742 23.7533C235.207 21.2761 235.539 19.4423 235.737 18.2518C236.678 12.8441 239.717 9.19253 244.855 7.29704C245.684 6.99029 246.311 6.74534 246.735 6.56219C247.154 6.35158 247.62 6.07686 248.131 5.73804C248.638 5.37175 249.023 4.95508 249.286 4.48804C249.548 4.021 249.739 3.46696 249.859 2.82591C250.127 1.2004 250.965 0.270913 252.375 0.037441C253.011 -0.0678504 253.585 0.0489333 254.096 0.387792C254.631 0.6946 254.956 1.19143 255.071 1.87827C255.126 2.20795 255.124 2.53306 255.064 2.85358C254.741 4.82708 253.94 6.56933 252.658 8.08033C251.373 9.56385 249.751 10.736 247.792 11.5968C245.304 12.6865 243.712 13.5289 243.016 14.1241C242.196 14.8247 241.707 15.6397 241.551 16.5692C242.55 15.9236 243.396 15.5436 244.087 15.4292C245.967 15.1179 247.663 15.4866 249.174 16.5352C250.681 17.5563 251.601 19.056 251.932 21.0341C252.116 22.133 252.089 23.2388 251.849 24.3515L251.227 27.5041L251.434 27.4697C252.54 27.2866 253.464 26.7807 254.206 25.9519C254.976 25.1186 255.48 24.0609 255.72 22.7788C255.867 21.7943 256.508 21.2082 257.642 21.0206ZM244.412 30.835C243.356 29.9649 242.727 28.9255 242.525 27.7167C242.35 26.6727 242.548 25.7363 243.119 24.9075C243.714 24.0467 244.522 23.5316 245.545 23.3622L245.794 23.321L245.85 22.8883C245.896 22.4854 245.898 22.1603 245.857 21.913C245.769 21.391 245.534 21.0064 245.152 20.7591C244.764 20.4843 244.294 20.3927 243.741 20.4843C243.133 20.585 242.564 20.9193 242.034 21.487C241.504 22.0548 241.096 22.7576 240.811 23.5956C240.258 26.9061 239.847 29.2894 239.58 30.7455C239.506 31.153 239.506 31.5766 239.58 32.0162C239.677 32.5931 239.932 33.0167 240.347 33.2868C240.757 33.5295 241.266 33.6005 241.875 33.4998C243.312 33.2618 244.149 32.488 244.384 31.1784L244.412 30.835Z" fill="url(#paint9_linear_120_30029)"/>
<path d="M275.13 21.0897C275.194 20.4578 275.462 19.9336 275.932 19.5169C276.402 19.1002 276.955 18.8393 277.591 18.734C278.254 18.6241 278.851 18.7088 279.381 18.9882C279.911 19.2675 280.226 19.7094 280.328 20.3138C280.374 20.5885 280.367 20.8862 280.307 21.2067C279.869 23.8487 278.931 26.1358 277.494 28.0681C276.083 29.9958 274.494 31.4449 272.724 32.4156C270.982 33.3817 269.088 34.0341 267.042 34.3729C263.946 34.8856 261.268 34.5947 259.011 33.5003C256.748 32.3784 255.414 30.6086 255.009 28.1909C254.861 27.3117 254.877 26.3067 255.057 25.1757L256.322 17.7235C256.677 15.6035 257.567 13.875 258.991 12.538C260.41 11.1735 262.087 10.3311 264.023 10.0106C266.345 9.62607 268.336 9.97414 269.995 11.0548C271.653 12.1355 272.649 13.6649 272.98 15.643C273.096 16.3299 273.112 17.1037 273.029 17.9645C272.784 19.8968 271.994 21.5383 270.658 22.8891C269.349 24.2352 267.741 25.0662 265.833 25.3821C264.257 25.6431 262.736 25.4713 261.271 24.8668L261.071 25.7048C260.988 26.0573 260.983 26.4534 261.057 26.893C261.218 27.8546 261.794 28.5781 262.785 29.0635C263.803 29.5443 265.059 29.6611 266.552 29.4139C268.515 29.0889 270.314 28.2121 271.95 26.7835C273.586 25.3549 274.646 23.457 275.13 21.0897ZM264.714 14.8941C264.216 14.9765 263.762 15.2352 263.352 15.6701C262.97 16.1005 262.721 16.65 262.605 17.3185L262.149 19.9354C262.785 20.1689 263.532 20.2147 264.389 20.0728C265.937 19.8164 266.801 19.0381 266.981 17.7377C267.041 17.4171 267.041 17.0783 266.981 16.7211C266.879 16.1167 266.615 15.6382 266.186 15.2856C265.785 14.9284 265.294 14.7979 264.714 14.8941Z" fill="url(#paint10_linear_120_30029)"/>
<path d="M303.8 8.67641C304.712 8.52534 305.358 8.89855 305.735 9.79603C306.192 10.8217 306.058 11.8039 305.334 12.7426C304.777 13.4843 303.931 13.949 302.798 14.1367L294.676 15.5239C293.653 15.6932 292.936 15.3177 292.526 14.3974C292.098 13.3671 292.232 12.3849 292.927 11.4508C293.457 10.7136 294.261 10.2558 295.34 10.0772L303.8 8.67641Z" fill="url(#paint11_linear_120_30029)"/>
<path d="M35.2274 107.751C35.9186 107.637 36.5084 107.765 36.9968 108.136C37.5129 108.503 37.8309 109.043 37.9506 109.757C38.0059 110.087 38.0059 110.51 37.9506 111.028C37.568 113.491 36.5565 115.593 34.916 117.333C33.3031 119.068 31.3631 120.124 29.0959 120.499C28.3494 120.623 27.6029 120.661 26.8565 120.616C26.2343 121.989 25.262 123.139 23.9395 124.063C22.6446 124.984 21.1953 125.577 19.5917 125.842C16.5781 126.341 14.1474 125.657 12.2996 123.788C10.4519 121.92 9.74697 119.241 10.1849 115.752C10.277 115.116 10.542 114.578 10.9798 114.138C11.4406 113.667 11.9752 113.38 12.5834 113.28C13.3023 113.161 13.9151 113.257 14.422 113.568C14.9519 113.848 15.2675 114.289 15.3689 114.894C15.3827 114.976 15.3666 115.304 15.3205 115.876C15.1776 117.735 15.4056 119.095 16.0046 119.956C16.6313 120.812 17.5805 121.135 18.8523 120.924C19.5435 120.81 20.1633 120.524 20.7117 120.066C21.2555 119.581 21.5965 118.988 21.7347 118.287L22.1426 115.89L20.9814 116.082C20.1796 116.215 19.6474 116.261 19.3847 116.22C18.5092 116.082 17.8641 115.709 17.4494 115.1C17.0578 114.459 16.9265 113.761 17.0555 113.005C17.1661 112.309 17.5187 111.7 18.1131 111.178C18.7076 110.656 19.4909 110.329 20.4632 110.196L23.2419 109.736L23.2765 109.434C23.4193 108.761 23.4355 108.094 23.3249 107.435C23.0992 106.089 22.0324 105.574 20.1247 105.89C19.3506 106.018 18.7054 106.238 18.1893 106.549C17.6732 106.86 17.3276 107.172 17.1525 107.483C16.9774 107.794 16.7285 108.09 16.406 108.369C16.0834 108.648 15.7009 108.825 15.2585 108.898C14.3461 109.049 13.6158 108.93 13.0674 108.541C12.5468 108.147 12.291 107.554 12.3003 106.762C12.351 105.37 13.0837 104.147 14.4984 103.094C15.9362 102.009 17.7886 101.279 20.0558 100.903C22.2676 100.537 24.2537 100.858 26.0139 101.865C27.7741 102.872 28.8293 104.42 29.1794 106.508C29.3453 107.497 29.3314 108.516 29.1378 109.565L28.0662 115.629L28.3151 115.588C29.4487 115.4 30.4325 114.828 31.2666 113.871C32.1007 112.914 32.6306 111.753 32.8565 110.389C32.9394 109.697 33.1975 109.118 33.6307 108.651C34.0592 108.157 34.5915 107.857 35.2274 107.751Z" fill="url(#paint12_linear_120_30029)"/>
<path d="M67.7077 103.687C68.3713 103.577 68.9703 103.675 69.5048 103.982C70.0624 104.257 70.3942 104.71 70.5001 105.342C70.5324 105.534 70.5254 105.832 70.4793 106.235C69.7972 110.301 68.576 113.355 66.8156 115.397C65.083 117.435 63.0692 118.643 60.7744 119.023C58.8667 119.339 57.1755 119.083 55.701 118.254C54.2265 117.425 53.3372 116.104 53.0331 114.291C52.8857 113.412 52.8973 112.464 53.0678 111.447L54.7892 102.395C54.8445 102.047 54.8492 101.735 54.8031 101.461C54.7386 101.076 54.5635 100.794 54.2778 100.616C53.9875 100.41 53.6488 100.339 53.2617 100.403C52.5705 100.517 51.9162 100.936 51.2987 101.66C50.7088 102.379 50.3194 103.276 50.1305 104.352L47.607 118.535C47.4457 119.437 47.084 120.161 46.5218 120.706C45.9596 121.25 45.3052 121.585 44.5587 121.708C43.8122 121.832 43.1395 121.717 42.5404 121.365C41.969 121.008 41.6212 120.458 41.4968 119.716C41.4231 119.277 41.4484 118.75 41.5729 118.137L44.1792 103.94C44.2484 103.674 44.2599 103.404 44.2138 103.129C44.1539 102.772 43.9673 102.507 43.654 102.333C43.3683 102.154 43.0181 102.099 42.6034 102.168C41.221 102.397 40.2279 103.507 39.6242 105.499L37.0523 120.41C36.9094 121.252 36.5569 121.946 35.9947 122.491C35.4556 123.004 34.8127 123.322 34.0662 123.446C33.2921 123.574 32.6078 123.475 32.0134 123.15C31.3867 122.802 31.0112 122.257 30.8868 121.515C30.8315 121.186 30.8315 120.847 30.8868 120.499L34.3367 100.402C34.4888 99.784 34.8298 99.2758 35.3597 98.8774C35.885 98.4516 36.4795 98.1838 37.143 98.0739C38.1937 97.8999 39.007 98.09 39.5829 98.6441C40.5276 97.8382 41.622 97.3323 42.8662 97.1263C44.8569 96.7967 46.5111 97.1722 47.829 98.2529C49.193 96.7281 50.9395 95.7895 53.0684 95.437C55.0038 95.1166 56.7226 95.3685 58.2247 96.1927C59.7269 97.017 60.6208 98.2808 60.9065 99.9842C61.017 100.644 61.0078 101.436 60.8787 102.361L58.9637 112.546C58.9268 112.665 58.9314 112.862 58.9775 113.137C59.1019 113.879 59.5788 114.181 60.4083 114.044C61.4589 113.87 62.4151 113.133 63.2768 111.832C64.1616 110.5 64.8344 108.581 65.2953 106.077C65.3829 105.413 65.6479 104.875 66.0903 104.463C66.5603 104.046 67.0995 103.787 67.7077 103.687Z" fill="url(#paint13_linear_120_30029)"/>
<path d="M81.9795 106.66C82.0947 106.669 82.2906 106.651 82.567 106.605C83.7559 106.408 84.7421 105.85 85.5254 104.929C86.3319 103.977 86.8595 102.803 87.1084 101.406C87.3066 99.8767 88.0969 98.9975 89.4794 98.7687C90.1153 98.6634 90.6913 98.7939 91.2073 99.1602C91.7465 99.4945 92.0782 100.033 92.2026 100.774C92.2579 101.104 92.2579 101.528 92.2026 102.045C91.8615 104.417 90.8891 106.498 89.2855 108.288C87.7048 110.046 85.7257 111.122 83.3479 111.516C82.4908 111.658 81.6429 111.686 80.8043 111.598C79.6752 114.524 77.2582 116.294 73.5534 116.907C71.3415 117.274 69.3555 116.953 67.5953 115.946C65.835 114.938 64.7799 113.391 64.4297 111.303C64.2639 110.313 64.2777 109.295 64.4713 108.246L66.0753 99.2554C66.4117 97.3643 67.3219 95.7595 68.8057 94.4408C70.2895 93.1221 72.0268 92.298 74.0174 91.9684C76.2846 91.593 78.2891 91.9388 80.0308 93.0057C81.768 94.0452 82.8094 95.5952 83.1549 97.6557C83.2839 98.425 83.2332 99.5629 83.0027 101.069C82.7999 102.571 82.551 103.629 82.2561 104.242C82.0487 104.7 81.8229 105.048 81.5787 105.286C81.6247 105.392 81.657 105.499 81.6754 105.609C81.7215 105.715 81.7515 105.808 81.7653 105.891C81.8067 105.969 81.8367 106.063 81.8551 106.172C81.8966 106.25 81.9219 106.317 81.9311 106.372C81.9404 106.427 81.9496 106.482 81.9588 106.537C81.968 106.591 81.9726 106.619 81.9726 106.619L81.9795 106.66ZM77.0584 100.952C77.2381 99.8213 77.275 98.9399 77.1691 98.308C77.0862 97.8135 76.8212 97.4197 76.3742 97.1266C75.9273 96.8335 75.3858 96.7397 74.7499 96.8449C74.0864 96.9548 73.4689 97.2547 72.8975 97.7446C72.3537 98.23 72.0127 98.8229 71.8744 99.5235L70.3327 108.377C70.1852 109.022 70.1691 109.689 70.2842 110.376C70.5054 111.694 71.2933 112.241 72.6481 112.017C74.1411 111.77 75.0305 110.889 75.3162 109.373C74.1827 108.713 73.5146 107.864 73.3119 106.825C73.1045 105.588 73.3626 104.501 74.0861 103.562C74.805 102.596 75.7566 102.086 76.9408 102.031C76.9408 101.861 76.98 101.502 77.0584 100.952Z" fill="url(#paint14_linear_120_30029)"/>
<path d="M125.628 93.3763C126.347 93.2573 127.031 93.3557 127.681 93.6717C128.33 93.9877 128.711 94.4753 128.821 95.1347C128.853 95.327 128.849 95.5537 128.807 95.8147C128.471 98.214 127.443 100.22 125.724 101.831C124.005 103.443 121.999 104.439 119.704 104.819C119.151 104.91 118.619 104.956 118.107 104.956C117.536 106.632 116.577 107.948 115.232 108.905C113.886 109.862 112.37 110.48 110.683 110.76C108.499 111.121 106.532 110.826 104.781 109.873C103.053 108.889 102.009 107.325 101.65 105.182C101.488 104.221 101.505 103.131 101.698 101.913C101.832 101.015 102.449 97.5812 103.551 91.6103C104.68 85.6348 105.282 82.4433 105.355 82.0358C105.779 79.8196 106.687 77.9469 108.079 76.4176C109.494 74.8562 111.155 73.9176 113.063 73.6017C115.191 73.2492 117.037 73.579 118.599 74.591C120.184 75.5709 121.143 77.05 121.474 79.0281C121.769 80.7864 121.622 82.7874 121.032 85.031C120.442 87.2747 119.396 89.1703 117.893 90.7179C118.962 91.8398 119.594 92.9777 119.787 94.1316C119.81 94.269 119.819 94.4086 119.815 94.5506C119.838 94.6879 119.859 94.8116 119.877 94.9215C119.895 95.0313 119.891 95.1733 119.863 95.3473C119.863 95.5167 119.859 95.6587 119.849 95.7731C119.836 95.8601 119.819 96.0181 119.801 96.247C119.778 96.4485 119.75 96.6225 119.718 96.769C119.709 96.8835 119.672 97.0873 119.607 97.3803C119.57 97.6688 119.538 97.9 119.511 98.074C119.483 98.248 119.432 98.5388 119.358 98.9463C119.308 99.3218 119.259 99.6263 119.213 99.8598L119.421 99.8255C120.527 99.6423 121.45 99.1364 122.192 98.3077C122.962 97.4743 123.467 96.4166 123.706 95.1345C123.854 94.15 124.494 93.564 125.628 93.3763ZM111.728 89.2822C112.889 89.0899 113.898 87.9063 114.756 85.7314C115.64 83.5518 115.961 81.734 115.717 80.2779C115.629 79.7559 115.394 79.3713 115.012 79.124C114.624 78.8492 114.168 78.7553 113.643 78.8423C113.09 78.9339 112.579 79.3574 112.108 80.1129C111.661 80.8364 111.346 81.7499 111.161 82.8534L109.841 90.23C110.325 89.7263 110.954 89.4104 111.728 89.2822ZM113.781 95.6767C113.817 95.2189 113.76 94.7907 113.608 94.3923C113.115 94.6716 112.619 94.8525 112.122 94.9349C111.513 95.0356 110.942 94.9326 110.408 94.6258C109.868 94.2915 109.495 93.845 109.288 93.2864L108.742 96.384C108.299 98.9986 107.907 101.238 107.566 103.101C107.493 103.509 107.493 103.932 107.566 104.372C107.663 104.949 107.919 105.372 108.334 105.643C108.744 105.885 109.253 105.956 109.861 105.856C111.299 105.618 112.135 104.844 112.37 103.534L112.398 103.191C111.343 102.321 110.714 101.281 110.511 100.072C110.336 99.0284 110.534 98.092 111.106 97.2632C111.7 96.4024 112.509 95.8873 113.532 95.7179L113.781 95.6767Z" fill="url(#paint15_linear_120_30029)"/>
<path d="M146.061 91.179C146.549 90.7028 147.111 90.4121 147.747 90.3068C148.383 90.2015 148.955 90.3045 149.462 90.6159C149.968 90.9273 150.277 91.4127 150.388 92.0721C150.443 92.4017 150.286 93.5854 149.918 95.623C149.549 97.3218 149.019 98.8213 148.328 100.122C147.636 101.422 146.844 102.457 145.95 103.226C145.079 103.963 144.21 104.545 143.344 104.971C142.473 105.369 141.567 105.646 140.627 105.802C139.687 105.957 138.651 105.959 137.517 105.808C136.383 105.657 135.457 105.218 134.738 104.49C133.301 106.252 131.6 107.296 129.637 107.621C127.812 107.923 126.177 107.573 124.73 106.57C123.311 105.563 122.456 104.194 122.166 102.463C122.055 101.803 122.069 101.039 122.207 100.169L124.247 88.4377C124.519 86.8397 125.224 85.537 126.362 84.5297C127.528 83.5178 128.843 82.8905 130.309 82.6479C132.133 82.3457 133.732 82.4763 135.106 83.0396C135.594 81.8857 136.516 81.1966 137.87 80.9723C138.7 80.8349 139.446 80.9655 140.11 81.3639C140.801 81.7577 141.218 82.3804 141.361 83.2321C141.43 83.6442 141.423 84.1113 141.34 84.6333L138.934 98.7546C138.879 99.272 138.877 99.6818 138.927 99.984C139.042 100.671 139.473 100.952 140.22 100.829C141.298 100.65 142.3 99.9338 143.227 98.6792C144.176 97.3925 144.828 95.5198 145.183 93.0609C145.307 92.2779 145.6 91.6506 146.061 91.179ZM133.992 92.1607C134.149 91.0618 134.179 90.2239 134.082 89.6469C133.972 88.9875 133.705 88.4953 133.281 88.1702C132.88 87.813 132.472 87.6687 132.057 87.7374C130.896 87.9297 130.184 89.0217 129.921 91.0136L128.656 99.7364C128.573 100.258 128.568 100.739 128.642 101.179C128.813 102.195 129.354 102.628 130.266 102.477C130.847 102.381 131.4 102.035 131.925 101.44C132.474 100.813 132.842 99.8762 133.031 98.6307L133.992 92.1607Z" fill="url(#paint16_linear_120_30029)"/>
<path d="M183.533 85.0168C184.225 84.9023 184.851 84.9962 185.414 85.2985C185.999 85.5686 186.34 85.9922 186.436 86.5691C186.469 86.7615 186.464 86.9881 186.423 87.2491C185.902 90.752 184.805 93.616 183.132 95.8413C181.487 98.0621 179.31 99.3967 176.6 99.8454C174.637 100.17 173.05 99.9391 171.838 99.1515C170.654 98.3593 169.923 97.139 169.647 95.4905C169.472 94.4465 169.497 93.327 169.723 92.1319C169.788 91.8389 169.702 91.6694 169.467 91.6236C169.255 91.5458 168.776 91.5687 168.03 91.6923C167.864 91.7197 167.638 91.7289 167.352 91.7197L166.142 98.9933C166.027 99.8312 165.661 100.527 165.043 101.081C164.426 101.635 163.73 101.976 162.956 102.105C162.209 102.228 161.541 102.141 160.951 101.843C160.357 101.518 160 100.999 159.88 100.284C159.839 100.037 159.832 99.7417 159.859 99.3983L161.014 92.5574C160.931 92.5712 160.747 92.5734 160.461 92.5643C159.797 92.5047 159.29 92.7016 158.94 93.1549C158.59 93.6082 158.279 94.5492 158.007 95.9778C157.546 98.4824 156.825 100.367 155.843 101.63C154.862 102.894 153.555 103.661 151.924 103.931C149.27 104.371 147.328 103.633 146.097 101.719C144.862 99.7778 144.568 97.0029 145.213 93.3948C145.485 91.9662 146.284 91.142 147.612 90.9222C148.275 90.8124 148.872 90.8971 149.402 91.1764C149.959 91.4512 150.291 91.9045 150.397 92.5364C150.443 92.8112 150.427 93.1385 150.349 93.5186C150.09 94.8602 149.95 95.9706 149.927 96.8497C149.927 97.6969 150.026 98.2875 150.224 98.6218C150.422 98.9561 150.715 99.0912 151.102 99.0271C151.268 98.9996 151.408 98.9057 151.523 98.7455C151.666 98.5807 151.784 98.3494 151.876 98.0518C151.964 97.7267 152.04 97.4176 152.104 97.1246C152.169 96.8315 152.235 96.4675 152.305 96.0325C152.401 95.5929 152.484 95.2403 152.553 94.9748C153.323 91.7696 154.544 89.5626 156.217 88.3538C154.577 86.5359 153.551 84.4044 153.141 81.9592C152.989 81.0526 153.132 80.2948 153.57 79.6858C154.008 79.0768 154.595 78.683 155.333 78.5045C156.273 78.3488 157.035 78.4908 157.621 78.9304C158.229 79.338 158.602 79.9538 158.74 80.7781C159.219 83.6353 159.915 85.5814 160.827 86.6163C161.155 86.5339 161.567 86.4514 162.065 86.369L165.238 67.9276C165.607 65.8899 166.524 64.7498 167.989 64.5072C168.763 64.379 169.471 64.5302 170.111 64.9606C170.752 65.391 171.146 66.0458 171.293 66.925C171.357 67.3096 171.323 67.866 171.189 68.594L168.382 85.4077C168.493 85.3894 168.949 85.3986 169.751 85.4352C171.341 84.4096 172.772 81.6738 174.044 77.2277C174.398 75.9547 175.143 75.2244 176.276 75.0367C176.663 74.9726 177.094 75.0001 177.569 75.1192C178.311 75.307 178.875 75.7076 179.262 76.3212C179.677 76.9303 179.781 77.7178 179.573 78.684C178.509 82.3333 176.907 85.1539 174.769 87.1456C175.419 87.631 175.833 88.4095 176.013 89.4809C176.11 90.0579 176.027 91.2576 175.764 93.08C175.695 93.515 175.688 93.8973 175.743 94.227C175.822 94.694 176.123 94.8841 176.649 94.7971C177.699 94.6231 178.626 93.8768 179.427 92.5581C180.225 91.2119 180.81 89.4491 181.183 87.2695C181.34 86.0012 182.123 85.2503 183.533 85.0168Z" fill="url(#paint17_linear_120_30029)"/>
<path d="M205.513 80.8269C206.176 80.717 206.773 80.8018 207.303 81.0811C207.861 81.3559 208.192 81.8092 208.298 82.4411C208.344 82.7158 208.328 83.0432 208.25 83.4233C207.531 87.439 206.293 90.4816 204.538 92.5512C202.81 94.6162 200.784 95.841 198.462 96.2256C196.609 96.5323 194.948 96.285 193.478 95.4836C192.004 94.6548 191.115 93.3337 190.81 91.5204C190.677 90.7237 190.705 89.7873 190.894 88.7113L191.177 87.0972L186.656 87.8457L185.336 95.4764C185.189 96.4609 184.852 97.2507 184.327 97.846C183.797 98.4137 183.186 98.7549 182.495 98.8693C181.749 98.9929 181.057 98.8532 180.421 98.4503C179.786 98.0473 179.396 97.42 179.253 96.5683C179.217 96.3485 179.256 95.8196 179.371 94.9817L180.519 88.3537C179.288 87.7951 178.781 86.806 178.998 85.3865C179.187 84.1411 180.007 83.2711 181.459 82.7766L182.482 76.9317C182.63 75.9472 182.968 75.1711 183.498 74.6033C184.024 74.0081 184.632 73.6533 185.323 73.5388C186.07 73.4152 186.761 73.5549 187.397 73.9579C188.033 74.3608 188.422 74.9882 188.565 75.8398C188.602 76.0596 188.562 76.5885 188.447 77.4264L187.714 81.6985L192.235 80.9501L193.265 75.1463C193.412 74.1618 193.751 73.3857 194.281 72.818C194.806 72.2227 195.415 71.8679 196.106 71.7534C196.852 71.6298 197.544 71.7695 198.179 72.1725C198.815 72.5754 199.205 73.2028 199.347 74.0545C199.384 74.2743 199.345 74.8031 199.23 75.6411L196.872 89.2884C196.812 89.7784 196.801 90.1333 196.838 90.353C196.958 91.0674 197.405 91.3604 198.179 91.2322C199.229 91.0583 200.186 90.3211 201.047 89.0207C201.932 87.6883 202.605 85.7698 203.066 83.2651C203.153 82.6012 203.432 82.0609 203.902 81.6442C204.368 81.2001 204.904 80.9276 205.513 80.8269Z" fill="url(#paint18_linear_120_30029)"/>
<path d="M219.802 83.84C219.917 83.8492 220.113 83.8308 220.39 83.7851C221.579 83.5882 222.565 83.0296 223.348 82.1093C224.154 81.1569 224.682 79.9824 224.931 78.5859C225.129 77.0565 225.92 76.1774 227.302 75.9485C227.938 75.8432 228.514 75.9737 229.03 76.3401C229.569 76.6743 229.901 77.2124 230.025 77.9542C230.08 78.2839 230.08 78.7074 230.025 79.2248C229.684 81.5967 228.712 83.6778 227.108 85.4681C225.527 87.2263 223.548 88.3023 221.171 88.696C220.313 88.8379 219.466 88.8653 218.627 88.7783C217.498 91.7042 215.081 93.4739 211.376 94.0873C209.164 94.4535 207.178 94.1329 205.418 93.1255C203.658 92.1181 202.602 90.5704 202.252 88.4824C202.087 87.4933 202.1 86.4745 202.294 85.4259L203.898 76.4353C204.234 74.5442 205.144 72.9393 206.628 71.6206C208.112 70.302 209.849 69.4778 211.84 69.1482C214.107 68.7728 216.112 69.1186 217.853 70.1856C219.591 71.2251 220.632 72.7751 220.978 74.8356C221.107 75.6048 221.056 76.7427 220.825 78.2492C220.622 79.751 220.374 80.8088 220.079 81.4223C219.871 81.8802 219.646 82.2282 219.401 82.4663C219.447 82.5716 219.48 82.6792 219.498 82.7891C219.544 82.8944 219.574 82.9883 219.588 83.0707C219.629 83.1486 219.659 83.2424 219.678 83.3523C219.719 83.4302 219.745 83.4966 219.754 83.5515C219.763 83.6065 219.772 83.6614 219.781 83.7164C219.791 83.7713 219.795 83.7988 219.795 83.7988L219.802 83.84ZM214.881 78.1322C215.061 77.0012 215.098 76.1198 214.992 75.4879C214.909 74.9933 214.644 74.5995 214.197 74.3065C213.75 74.0134 213.208 73.9195 212.573 74.0248C211.909 74.1347 211.291 74.4346 210.72 74.9245C210.176 75.4098 209.835 76.0028 209.697 76.7034L208.155 85.5566C208.008 86.2023 207.992 86.8685 208.107 87.5554C208.328 88.8741 209.116 89.4213 210.471 89.197C211.964 88.9498 212.853 88.0684 213.139 86.5527C212.005 85.8933 211.337 85.0439 211.134 84.0045C210.927 82.7682 211.185 81.6807 211.909 80.7421C212.628 79.7759 213.579 79.2654 214.763 79.2105C214.763 79.0411 214.803 78.6816 214.881 78.1322Z" fill="url(#paint19_linear_120_30029)"/>
<path d="M240.758 77.7866C240.509 79.0137 239.873 79.7967 238.85 80.1355C237.85 80.4422 236.942 80.2819 236.127 79.6546C235.339 79.0227 235.079 78.1481 235.346 77.0308L239.653 53.4038C239.897 51.9797 240.582 50.977 241.706 50.3955C242.826 49.7865 243.867 49.8117 244.83 50.4711C245.789 51.1031 246.173 52.2112 245.984 53.7955L240.758 77.7866ZM236.016 83.0613C236.984 82.9011 237.855 83.0957 238.629 83.6452C239.403 84.1947 239.868 84.9365 240.025 85.8706C240.182 86.8047 239.97 87.6587 239.389 88.4325C238.836 89.2018 238.089 89.6642 237.149 89.8198C236.209 89.9755 235.352 89.7786 234.578 89.2291C233.804 88.6796 233.339 87.9378 233.182 87.0037C233.025 86.0695 233.224 85.2179 233.777 84.4486C234.33 83.6794 235.076 83.217 236.016 83.0613Z" fill="url(#paint20_linear_120_30029)"/>
<defs>
<linearGradient id="paint0_linear_120_30029" x1="-9.27654" y1="236.797" x2="527.464" y2="-137.751" gradientUnits="userSpaceOnUse">
<stop stop-color="#001C2A"/>
<stop offset="0.497341" stop-color="#4BE9E7"/>
</linearGradient>
<linearGradient id="paint1_linear_120_30029" x1="-9.27654" y1="236.797" x2="527.464" y2="-137.751" gradientUnits="userSpaceOnUse">
<stop stop-color="#001C2A"/>
<stop offset="0.497341" stop-color="#4BE9E7"/>
</linearGradient>
<linearGradient id="paint2_linear_120_30029" x1="-9.27654" y1="236.797" x2="527.464" y2="-137.751" gradientUnits="userSpaceOnUse">
<stop stop-color="#001C2A"/>
<stop offset="0.497341" stop-color="#4BE9E7"/>
</linearGradient>
<linearGradient id="paint3_linear_120_30029" x1="-9.27654" y1="236.797" x2="527.464" y2="-137.751" gradientUnits="userSpaceOnUse">
<stop stop-color="#001C2A"/>
<stop offset="0.497341" stop-color="#4BE9E7"/>
</linearGradient>
<linearGradient id="paint4_linear_120_30029" x1="-9.27654" y1="236.797" x2="527.464" y2="-137.751" gradientUnits="userSpaceOnUse">
<stop stop-color="#001C2A"/>
<stop offset="0.497341" stop-color="#4BE9E7"/>
</linearGradient>
<linearGradient id="paint5_linear_120_30029" x1="-9.27654" y1="236.797" x2="527.464" y2="-137.751" gradientUnits="userSpaceOnUse">
<stop stop-color="#001C2A"/>
<stop offset="0.497341" stop-color="#4BE9E7"/>
</linearGradient>
<linearGradient id="paint6_linear_120_30029" x1="-9.27654" y1="236.797" x2="527.464" y2="-137.751" gradientUnits="userSpaceOnUse">
<stop stop-color="#001C2A"/>
<stop offset="0.497341" stop-color="#4BE9E7"/>
</linearGradient>
<linearGradient id="paint7_linear_120_30029" x1="-9.27654" y1="236.797" x2="527.464" y2="-137.751" gradientUnits="userSpaceOnUse">
<stop stop-color="#001C2A"/>
<stop offset="0.497341" stop-color="#4BE9E7"/>
</linearGradient>
<linearGradient id="paint8_linear_120_30029" x1="-9.27654" y1="236.797" x2="527.464" y2="-137.751" gradientUnits="userSpaceOnUse">
<stop stop-color="#001C2A"/>
<stop offset="0.497341" stop-color="#4BE9E7"/>
</linearGradient>
<linearGradient id="paint9_linear_120_30029" x1="-9.27654" y1="236.797" x2="527.464" y2="-137.751" gradientUnits="userSpaceOnUse">
<stop stop-color="#001C2A"/>
<stop offset="0.497341" stop-color="#4BE9E7"/>
</linearGradient>
<linearGradient id="paint10_linear_120_30029" x1="-9.27654" y1="236.797" x2="527.464" y2="-137.751" gradientUnits="userSpaceOnUse">
<stop stop-color="#001C2A"/>
<stop offset="0.497341" stop-color="#4BE9E7"/>
</linearGradient>
<linearGradient id="paint11_linear_120_30029" x1="-9.27654" y1="236.797" x2="527.464" y2="-137.751" gradientUnits="userSpaceOnUse">
<stop stop-color="#001C2A"/>
<stop offset="0.497341" stop-color="#4BE9E7"/>
</linearGradient>
<linearGradient id="paint12_linear_120_30029" x1="-9.27654" y1="236.797" x2="527.464" y2="-137.751" gradientUnits="userSpaceOnUse">
<stop stop-color="#001C2A"/>
<stop offset="0.497341" stop-color="#4BE9E7"/>
</linearGradient>
<linearGradient id="paint13_linear_120_30029" x1="-9.27654" y1="236.797" x2="527.464" y2="-137.751" gradientUnits="userSpaceOnUse">
<stop stop-color="#001C2A"/>
<stop offset="0.497341" stop-color="#4BE9E7"/>
</linearGradient>
<linearGradient id="paint14_linear_120_30029" x1="-9.27654" y1="236.797" x2="527.464" y2="-137.751" gradientUnits="userSpaceOnUse">
<stop stop-color="#001C2A"/>
<stop offset="0.497341" stop-color="#4BE9E7"/>
</linearGradient>
<linearGradient id="paint15_linear_120_30029" x1="-9.27654" y1="236.797" x2="527.464" y2="-137.751" gradientUnits="userSpaceOnUse">
<stop stop-color="#001C2A"/>
<stop offset="0.497341" stop-color="#4BE9E7"/>
</linearGradient>
<linearGradient id="paint16_linear_120_30029" x1="-9.27654" y1="236.797" x2="527.464" y2="-137.751" gradientUnits="userSpaceOnUse">
<stop stop-color="#001C2A"/>
<stop offset="0.497341" stop-color="#4BE9E7"/>
</linearGradient>
<linearGradient id="paint17_linear_120_30029" x1="-9.27654" y1="236.797" x2="527.464" y2="-137.751" gradientUnits="userSpaceOnUse">
<stop stop-color="#001C2A"/>
<stop offset="0.497341" stop-color="#4BE9E7"/>
</linearGradient>
<linearGradient id="paint18_linear_120_30029" x1="-9.27654" y1="236.797" x2="527.464" y2="-137.751" gradientUnits="userSpaceOnUse">
<stop stop-color="#001C2A"/>
<stop offset="0.497341" stop-color="#4BE9E7"/>
</linearGradient>
<linearGradient id="paint19_linear_120_30029" x1="-9.27654" y1="236.797" x2="527.464" y2="-137.751" gradientUnits="userSpaceOnUse">
<stop stop-color="#001C2A"/>
<stop offset="0.497341" stop-color="#4BE9E7"/>
</linearGradient>
<linearGradient id="paint20_linear_120_30029" x1="-9.27654" y1="236.797" x2="527.464" y2="-137.751" gradientUnits="userSpaceOnUse">
<stop stop-color="#001C2A"/>
<stop offset="0.497341" stop-color="#4BE9E7"/>
</linearGradient>
</defs>
</svg>
