<svg width="1308" height="292" viewBox="0 0 1308 292" fill="none" xmlns="http://www.w3.org/2000/svg">
<g opacity="0.95" filter="url(#filter0_d_125_10541)">
<path d="M968.69 236.671C969.046 234.849 971.477 234.454 972.392 236.069L977.331 244.787C977.619 245.295 978.114 245.652 978.687 245.764L988.519 247.69C990.341 248.046 990.736 250.477 989.12 251.393L980.403 256.331C979.895 256.619 979.538 257.114 979.426 257.687L977.5 267.519C977.143 269.341 974.712 269.736 973.797 268.121L968.859 259.403C968.571 258.895 968.076 258.538 967.503 258.426L957.671 256.5C955.849 256.143 955.454 253.712 957.069 252.797L965.787 247.859C966.295 247.571 966.652 247.076 966.764 246.503L968.69 236.671Z" fill="#55FFFC"/>
</g>
<g opacity="0.67" filter="url(#filter1_d_125_10541)">
<path d="M1031.69 120.621C1033.31 119.723 1035.18 121.331 1034.53 123.07L1033.47 125.895C1033.27 126.442 1033.31 127.05 1033.6 127.561L1035.06 130.2C1035.95 131.825 1034.35 133.69 1032.61 133.041L1029.78 131.987C1029.23 131.783 1028.63 131.828 1028.11 132.111L1025.48 133.569C1023.85 134.467 1021.99 132.859 1022.63 131.119L1023.69 128.295C1023.89 127.748 1023.85 127.139 1023.57 126.628L1022.11 123.989C1021.21 122.364 1022.82 120.499 1024.56 121.148L1027.38 122.202C1027.93 122.406 1028.54 122.361 1029.05 122.079L1031.69 120.621Z" fill="#55FFFC"/>
</g>
<g opacity="0.2" filter="url(#filter2_d_125_10541)">
<path d="M1296.58 7.64349C1296.87 6.18613 1298.81 5.87035 1299.55 7.16248C1299.78 7.56872 1300.17 7.85415 1300.63 7.94389C1302.09 8.22932 1302.4 10.1737 1301.11 10.9057C1300.71 11.1358 1300.42 11.532 1300.33 11.9901C1300.05 13.4475 1298.1 13.7633 1297.37 12.4712C1297.14 12.0649 1296.74 11.7795 1296.28 11.6898C1294.83 11.4043 1294.51 9.4599 1295.8 8.72793C1296.21 8.4978 1296.5 8.10168 1296.58 7.64349Z" fill="#55FFFC"/>
</g>
<g filter="url(#filter3_d_125_10541)">
<path d="M1187.73 228.471C1187.97 227.238 1189.61 226.971 1190.23 228.064C1190.43 228.408 1190.76 228.65 1191.15 228.726C1192.38 228.967 1192.65 230.612 1191.56 231.232C1191.21 231.426 1190.97 231.762 1190.9 232.149C1190.65 233.382 1189.01 233.65 1188.39 232.556C1188.19 232.213 1187.86 231.971 1187.47 231.895C1186.24 231.654 1185.97 230.008 1187.06 229.389C1187.41 229.194 1187.65 228.859 1187.73 228.471Z" fill="#55FFFC"/>
</g>
<g opacity="0.67" filter="url(#filter4_d_125_10541)">
<path d="M289.146 191.153C290.004 189.941 291.907 190.451 292.045 191.929C292.088 192.394 292.332 192.817 292.713 193.087C293.925 193.945 293.415 195.848 291.936 195.985C291.471 196.029 291.049 196.273 290.779 196.654C289.92 197.866 288.018 197.356 287.88 195.877C287.837 195.412 287.593 194.989 287.212 194.719C286 193.861 286.51 191.958 287.989 191.821C288.453 191.778 288.876 191.534 289.146 191.153Z" fill="#55FFFC"/>
</g>
<g opacity="0.67" filter="url(#filter5_d_125_10541)">
<path d="M37.6958 236.552C38.7688 235.037 41.1477 235.674 41.3194 237.523L41.8861 243.624C41.9401 244.206 42.2453 244.734 42.7216 245.072L47.7224 248.613C49.2376 249.686 48.6002 252.065 46.7515 252.237L40.6499 252.804C40.0687 252.858 39.54 253.163 39.2027 253.639L35.6611 258.64C34.5881 260.155 32.2092 259.518 32.0375 257.669L31.4708 251.567C31.4168 250.986 31.1116 250.457 30.6353 250.12L25.6345 246.579C24.1193 245.506 24.7567 243.127 26.6054 242.955L32.707 242.388C33.2882 242.334 33.8169 242.029 34.1542 241.553L37.6958 236.552Z" fill="#55FFFC"/>
</g>
<g opacity="0.67" filter="url(#filter6_d_125_10541)">
<path d="M171.115 134.495C171.544 132.688 173.989 132.39 174.839 134.041L178.536 141.219C178.803 141.738 179.283 142.114 179.851 142.249L187.706 144.115C189.513 144.544 189.81 146.989 188.16 147.839L180.982 151.535C180.463 151.803 180.087 152.283 179.952 152.851L178.086 160.706C177.657 162.512 175.212 162.81 174.362 161.16L170.666 153.982C170.398 153.463 169.918 153.087 169.35 152.952L161.495 151.086C159.688 150.657 159.391 148.212 161.041 147.362L168.219 143.665C168.738 143.398 169.114 142.917 169.249 142.35L171.115 134.495Z" fill="#55FFFC"/>
</g>
<g opacity="0.3" filter="url(#filter7_d_125_10541)">
<path d="M1162.99 80.7822C1164.61 79.8842 1166.48 81.4923 1165.83 83.2318L1164.78 86.0564C1164.57 86.6033 1164.62 87.212 1164.9 87.7229L1166.36 90.3616C1167.26 91.9866 1165.65 93.8518 1163.91 93.2028L1161.08 92.1489C1160.54 91.9448 1159.93 91.9899 1159.42 92.2722L1156.78 93.7304C1155.15 94.6285 1153.29 93.0203 1153.94 91.2808L1154.99 88.4562C1155.2 87.9093 1155.15 87.3006 1154.87 86.7897L1153.41 84.151C1152.51 82.5261 1154.12 80.6608 1155.86 81.3099L1158.68 82.3637C1159.23 82.5678 1159.84 82.5227 1160.35 82.2404L1162.99 80.7822Z" fill="#55FFFC"/>
</g>
<defs>
<filter id="filter0_d_125_10541" x="934.054" y="213.054" width="78.0815" height="78.0815" filterUnits="userSpaceOnUse" color-interpolation-filters="sRGB">
<feFlood flood-opacity="0" result="BackgroundImageFix"/>
<feColorMatrix in="SourceAlpha" type="matrix" values="0 0 0 0 0 0 0 0 0 0 0 0 0 0 0 0 0 0 127 0" result="hardAlpha"/>
<feOffset/>
<feGaussianBlur stdDeviation="11"/>
<feComposite in2="hardAlpha" operator="out"/>
<feColorMatrix type="matrix" values="0 0 0 0 0.333333 0 0 0 0 1 0 0 0 0 0.988235 0 0 0 1 0"/>
<feBlend mode="normal" in2="BackgroundImageFix" result="effect1_dropShadow_125_10541"/>
<feBlend mode="normal" in="SourceGraphic" in2="effect1_dropShadow_125_10541" result="shape"/>
</filter>
<filter id="filter1_d_125_10541" x="998.05" y="96.5633" width="61.0624" height="61.0624" filterUnits="userSpaceOnUse" color-interpolation-filters="sRGB">
<feFlood flood-opacity="0" result="BackgroundImageFix"/>
<feColorMatrix in="SourceAlpha" type="matrix" values="0 0 0 0 0 0 0 0 0 0 0 0 0 0 0 0 0 0 127 0" result="hardAlpha"/>
<feOffset/>
<feGaussianBlur stdDeviation="11.9"/>
<feComposite in2="hardAlpha" operator="out"/>
<feColorMatrix type="matrix" values="0 0 0 0 0.333333 0 0 0 0 1 0 0 0 0 0.988235 0 0 0 1 0"/>
<feBlend mode="normal" in2="BackgroundImageFix" result="effect1_dropShadow_125_10541"/>
<feBlend mode="normal" in="SourceGraphic" in2="effect1_dropShadow_125_10541" result="shape"/>
</filter>
<filter id="filter2_d_125_10541" x="1288.99" y="0.350586" width="18.9326" height="18.9326" filterUnits="userSpaceOnUse" color-interpolation-filters="sRGB">
<feFlood flood-opacity="0" result="BackgroundImageFix"/>
<feColorMatrix in="SourceAlpha" type="matrix" values="0 0 0 0 0 0 0 0 0 0 0 0 0 0 0 0 0 0 127 0" result="hardAlpha"/>
<feOffset/>
<feGaussianBlur stdDeviation="3"/>
<feComposite in2="hardAlpha" operator="out"/>
<feColorMatrix type="matrix" values="0 0 0 0 0.333333 0 0 0 0 1 0 0 0 0 0.988235 0 0 0 1 0"/>
<feBlend mode="normal" in2="BackgroundImageFix" result="effect1_dropShadow_125_10541"/>
<feBlend mode="normal" in="SourceGraphic" in2="effect1_dropShadow_125_10541" result="shape"/>
</filter>
<filter id="filter3_d_125_10541" x="1167.08" y="208.077" width="44.4662" height="44.4662" filterUnits="userSpaceOnUse" color-interpolation-filters="sRGB">
<feFlood flood-opacity="0" result="BackgroundImageFix"/>
<feColorMatrix in="SourceAlpha" type="matrix" values="0 0 0 0 0 0 0 0 0 0 0 0 0 0 0 0 0 0 127 0" result="hardAlpha"/>
<feOffset/>
<feGaussianBlur stdDeviation="9.65"/>
<feComposite in2="hardAlpha" operator="out"/>
<feColorMatrix type="matrix" values="0 0 0 0 0.333333 0 0 0 0 1 0 0 0 0 0.988235 0 0 0 1 0"/>
<feBlend mode="normal" in2="BackgroundImageFix" result="effect1_dropShadow_125_10541"/>
<feBlend mode="normal" in="SourceGraphic" in2="effect1_dropShadow_125_10541" result="shape"/>
</filter>
<filter id="filter4_d_125_10541" x="262.735" y="166.676" width="54.4555" height="54.455" filterUnits="userSpaceOnUse" color-interpolation-filters="sRGB">
<feFlood flood-opacity="0" result="BackgroundImageFix"/>
<feColorMatrix in="SourceAlpha" type="matrix" values="0 0 0 0 0 0 0 0 0 0 0 0 0 0 0 0 0 0 127 0" result="hardAlpha"/>
<feOffset/>
<feGaussianBlur stdDeviation="11.9"/>
<feComposite in2="hardAlpha" operator="out"/>
<feColorMatrix type="matrix" values="0 0 0 0 0.333333 0 0 0 0 1 0 0 0 0 0.988235 0 0 0 1 0"/>
<feBlend mode="normal" in2="BackgroundImageFix" result="effect1_dropShadow_125_10541"/>
<feBlend mode="normal" in="SourceGraphic" in2="effect1_dropShadow_125_10541" result="shape"/>
</filter>
<filter id="filter5_d_125_10541" x="0.987843" y="211.906" width="71.381" height="71.3808" filterUnits="userSpaceOnUse" color-interpolation-filters="sRGB">
<feFlood flood-opacity="0" result="BackgroundImageFix"/>
<feColorMatrix in="SourceAlpha" type="matrix" values="0 0 0 0 0 0 0 0 0 0 0 0 0 0 0 0 0 0 127 0" result="hardAlpha"/>
<feOffset/>
<feGaussianBlur stdDeviation="11.9"/>
<feComposite in2="hardAlpha" operator="out"/>
<feColorMatrix type="matrix" values="0 0 0 0 0.333333 0 0 0 0 1 0 0 0 0 0.988235 0 0 0 1 0"/>
<feBlend mode="normal" in2="BackgroundImageFix" result="effect1_dropShadow_125_10541"/>
<feBlend mode="normal" in="SourceGraphic" in2="effect1_dropShadow_125_10541" result="shape"/>
</filter>
<filter id="filter6_d_125_10541" x="136.157" y="109.156" width="76.8881" height="76.8886" filterUnits="userSpaceOnUse" color-interpolation-filters="sRGB">
<feFlood flood-opacity="0" result="BackgroundImageFix"/>
<feColorMatrix in="SourceAlpha" type="matrix" values="0 0 0 0 0 0 0 0 0 0 0 0 0 0 0 0 0 0 127 0" result="hardAlpha"/>
<feOffset/>
<feGaussianBlur stdDeviation="11.9"/>
<feComposite in2="hardAlpha" operator="out"/>
<feColorMatrix type="matrix" values="0 0 0 0 0.333333 0 0 0 0 1 0 0 0 0 0.988235 0 0 0 1 0"/>
<feBlend mode="normal" in2="BackgroundImageFix" result="effect1_dropShadow_125_10541"/>
<feBlend mode="normal" in="SourceGraphic" in2="effect1_dropShadow_125_10541" result="shape"/>
</filter>
<filter id="filter7_d_125_10541" x="1129.35" y="56.7249" width="61.0624" height="61.0624" filterUnits="userSpaceOnUse" color-interpolation-filters="sRGB">
<feFlood flood-opacity="0" result="BackgroundImageFix"/>
<feColorMatrix in="SourceAlpha" type="matrix" values="0 0 0 0 0 0 0 0 0 0 0 0 0 0 0 0 0 0 127 0" result="hardAlpha"/>
<feOffset/>
<feGaussianBlur stdDeviation="11.9"/>
<feComposite in2="hardAlpha" operator="out"/>
<feColorMatrix type="matrix" values="0 0 0 0 0.333333 0 0 0 0 1 0 0 0 0 0.988235 0 0 0 1 0"/>
<feBlend mode="normal" in2="BackgroundImageFix" result="effect1_dropShadow_125_10541"/>
<feBlend mode="normal" in="SourceGraphic" in2="effect1_dropShadow_125_10541" result="shape"/>
</filter>
</defs>
</svg>
